<?xml version="1.0" encoding="utf-8"?>
<!-- Generator: Adobe Illustrator 18.0.0, SVG Export Plug-In . SVG Version: 6.00 Build 0)  -->
<!DOCTYPE svg PUBLIC "-//W3C//DTD SVG 1.1 Tiny//EN" "http://www.w3.org/Graphics/SVG/1.1/DTD/svg11-tiny.dtd">
<svg version="1.1" baseProfile="tiny" id="Layer_1" xmlns="http://www.w3.org/2000/svg" xmlns:xlink="http://www.w3.org/1999/xlink"
	 x="0px" y="0px" viewBox="0 0 317 355.2" xml:space="preserve">
<g>
	<path fill-rule="evenodd" fill="#790000" d="M161.3,21c76.9,0,139.3,62.4,139.3,139.3c0,76.9-62.4,139.3-139.3,139.3
		c-76.9,0-139.3-62.4-139.3-139.3C22.1,83.4,84.4,21,161.3,21L161.3,21z M161.3,82.5c42.9,0,77.8,34.8,77.8,77.8
		c0,42.9-34.8,77.8-77.8,77.8c-42.9,0-77.8-34.8-77.8-77.8C83.6,117.4,118.4,82.5,161.3,82.5L161.3,82.5z"/>
	<path fill-rule="evenodd" fill="#FFCB05" d="M161.3,75.3c46.9,0,85,38.1,85,85c0,46.9-38.1,85-85,85c-46.9,0-85-38.1-85-85
		C76.4,113.4,114.4,75.3,161.3,75.3L161.3,75.3z M162.7,23.4c24.5,0,47.5,6.3,67.5,17.5c-19.1-9.8-40.9-15.4-64-15.4
		c-76.2,0-138,60.4-138,134.8c0,74.4,61.8,134.8,138,134.8c23.1,0,44.9-5.6,64-15.4c-19.9,11.1-43,17.5-67.5,17.5
		c-76.2,0-138-61.3-138-136.9C24.7,84.7,86.5,23.4,162.7,23.4L162.7,23.4z M161.3,29.5c72.2,0,130.8,58.6,130.8,130.8
		c0,72.2-58.6,130.8-130.8,130.8c-72.2,0-130.8-58.6-130.8-130.8C30.5,88.1,89.1,29.5,161.3,29.5L161.3,29.5z M161.3,77.6
		c30.4,0,57,16.5,71.4,40.9c-14.5-23.1-40.2-38.5-69.6-38.5c-45.3,0-82,36.7-82,82c0,29.3,15.4,55,38.5,69.6
		c-24.5-14.3-41-40.9-41-71.4C78.7,114.7,115.7,77.6,161.3,77.6L161.3,77.6z"/>
	<path fill-rule="evenodd" fill="#790000" d="M290.8,30.5c0,0-9.5,9.1-11.7,29.6c3,15.3,0.7,42.9-24.8,60
		c-25.5,17.1-63.2,37-125.5,19.8c-41.2-11.4-72.1-36.9-86-71.1C39,59.1,37.1,45.9,37,35.9c2.6-6.6,10.8-13.5,15-14.3
		c0,0,14.1,3.1,31.6,14.3c9.9,6.3,19.9,16.8,35.9,25.4c22,11.8,46.7,16.3,71.6,13c35.8-4.7,52.4-25,59.3-27.2
		c7.2-10.4,18.4-32.6,20.8-35.7c3.8-3.5,28.4-5.7,29.2-0.2C301,15,298.5,27.5,290.8,30.5L290.8,30.5z"/>
	<path fill-rule="evenodd" fill="#FFF200" d="M284.6,31.4c-2.7,4.1-7.5,13.9-10.2,26.2c-1.8-0.8-4.8-1.2-7.8-1.9
		c-3.8-0.9-7.8-1.5-10.4-1.3c-0.6-0.9-1.1-3-1.7-4.7c7.2-11.4,16.6-29.8,17.4-30.8c1.2-1.2,2.6-3.1,5.3-3.9
		c2.4-0.7,17.1-3.6,17.7,0.2c0.5,3.5-3.2,11.8-8.3,14.1c-3.9-0.3-7.7,0.3-11.6-1C278.1,30.2,281.5,30.4,284.6,31.4L284.6,31.4z
		 M52.4,66.2c0.5,0.2,1,0.5,1.5,0.6c-3.5-7.3-6.3-14.9-8-23.3C46.8,51.6,49.3,59,52.4,66.2L52.4,66.2z M54.7,68.6
		c-0.6-0.3-1.3-0.7-1.8-0.9c13.8,30.1,46.1,51.1,68.9,59.1c29.2,10.1,72.3,14.4,104.2,4.7c-10.5,5.3-31.6,9.5-46.4,9.8
		c-14.8,0.3-31.3-1.5-49.1-6.4C91,124,61.3,99.9,47.9,67.8c-3.2-7.7-4.4-16.1-5.3-25.7c5.7,1.2,11.2-6.7,14.2-10.4
		c0.7-0.9,1.5-1.6,1.9-2.4c6.1,2.4,15.6,6.7,25.9,13.2c9.5,6,19.1,16.1,34.5,24.2c21.1,11.1,46.2,16.6,70.1,13.6
		c29.6-3.7,49.1-19.9,58.1-25.5c0.8-0.5,3.4-2,4.4-2c0.4,0.8,1,1.6,1.3,2.4c-8.8,11.6-23.6,20.3-36.7,25.8c1,0.1,1.9,0.1,3,0.2
		c11-4.8,27.2-12.7,35.9-24.1c4.9-2,15.1,0,19,3.9c0.6,3,1,6.4,1,10.1c0.2,35.1-28.7,52.3-58.3,59.3c-15.8,3.7-33.8,5-52.1,3.2
		C121.5,129.2,75.5,109.6,54.7,68.6L54.7,68.6z M42.3,36.8c0.4-0.9,1.3-2.6,3.1-4.9c1.8-2.3,6.5-5.2,6.5-5.2s1.1,0.5,2.5,1
		c1.8,1.5,1.4,3.3,0.8,3.7c-3.5,2-5.9,5.2-9.1,7C44.6,39,43.1,37.8,42.3,36.8L42.3,36.8z M209.7,83.4c1.1,0.2,2.5,0.4,3.6,0.6
		c-31.8,12.6-67.4,9.2-97.7-6.7C93.8,65.7,78.8,46.7,56.9,33.8C79,46,94.7,63.3,116.3,74.7C145.1,89.9,179,94.1,209.7,83.4
		L209.7,83.4z M257,52.7c2.5-0.4,15-20.7,17-32.3C265.3,38.5,259.5,48.9,257,52.7L257,52.7z"/>
	<path fill-rule="evenodd" fill="#790000" d="M298.3,32.8c0,0-9.4,11.3-9.3,34.3c5.3,16.5,6.2,47.5-20,69.6
		c-26.2,22.2-65.4,48.9-136.7,37.7c-47.1-7.4-84.7-31.9-104.3-68.1c-5.5-10.1-9.2-24.5-10.6-35.6c2-7.6,10.3-16.4,14.9-17.7
		c0,0,16,1.7,36.8,11.9c11.7,5.8,24.2,16.1,43,23.7c25.9,10.3,53.8,12.2,81.1,5.4c39.1-9.7,55-34.4,62.4-37.6
		c6.7-12.4,16.3-38.5,18.5-42.2c3.8-4.4,30.8-9.9,32.3-3.9C307.7,14.4,306.5,28.5,298.3,32.8L298.3,32.8z"/>
	<path fill-rule="evenodd" fill="#FFF200" d="M291.6,34.6c-2.5,4.9-6.6,16.4-8,30.3c-2.1-0.7-5.5-0.7-8.9-1.1
		c-4.3-0.5-8.8-0.6-11.7-0.1c-0.8-0.9-1.6-3.2-2.5-5c6.6-13.6,14.7-35.2,15.4-36.4c1.2-1.5,2.5-3.8,5.4-5c2.6-1.1,18.6-6.1,19.6-2
		c1,3.8-2.1,13.5-7.4,16.7c-4.3,0.1-8.4,1.3-13,0.4C284.2,34,288.1,33.8,291.6,34.6L291.6,34.6z M38.4,102.3
		c0.6,0.1,1.1,0.4,1.7,0.5c-4.8-7.6-8.9-15.8-11.8-24.9C30.4,86.9,34,94.7,38.4,102.3L38.4,102.3z M41.3,104.6
		c-0.7-0.2-1.5-0.6-2.2-0.8c19.1,31.6,57.6,50.9,83.9,56.9c33.6,7.6,82,6.9,116.2-7.9c-11,7.2-33.8,14.5-50.2,16.7
		c-16.4,2.2-35,2.2-55.3-1c-45.2-7.1-81.2-30-100.1-63.9c-4.5-8.1-6.9-17.3-9.1-27.9C31,77.5,36.1,68,39,63.5c0.7-1.1,1.5-2,1.8-2.9
		c7,1.9,18.1,5.5,30.4,11.4c11.3,5.4,23.2,15.5,41.3,22.5c24.9,9.7,53.4,12.6,79.5,6.3c32.4-7.8,51.9-28.2,61.2-35.6
		c0.9-0.7,3.5-2.6,4.7-2.7c0.6,0.8,1.3,1.6,1.7,2.5c-8.3,14-23.6,25.4-37.5,33.2c1.1,0,2.1-0.1,3.3-0.1
		c11.6-6.8,28.6-17.5,36.8-31.3c5.2-2.8,16.8-1.9,21.5,1.9c1,3.2,1.9,7,2.4,11.1c4.7,38.9-25.3,61.6-57.2,73.1
		c-17.1,6.1-36.8,9.8-57.4,10C122.9,163.5,69.4,147.6,41.3,104.6L41.3,104.6z M23.5,70.9c0.4-1,1.1-3,2.9-5.8
		c1.7-2.8,6.5-6.6,6.5-6.6s1.3,0.5,2.9,0.8c2.2,1.5,2,3.5,1.3,4c-3.6,2.7-5.9,6.5-9.3,8.9C26.4,73.2,24.5,72,23.5,70.9L23.5,70.9z
		 M215.1,101.6c1.2,0,2.9,0.1,4,0.2c-33.7,18-73.6,18.7-109.2,4.8c-25.6-10-44.7-29.2-70.5-40.8c26,10.7,45.6,28,70.9,37.9
		C144.2,117,182.3,117.3,215.1,101.6L215.1,101.6z M263.6,61.7c2.7-0.8,14.1-24.9,14.8-38C271,44.9,266,57.1,263.6,61.7L263.6,61.7z
		"/>
	<path fill-rule="evenodd" fill="#790000" d="M302.8,30.8c0,0-7.8,13.2-3.6,36.7c8.4,16,14.9,47.5-8.5,74.8
		c-23.3,27.3-59.6,61.5-135.9,62.5c-50.5,0.6-94-17.8-120.9-51.4c-7.5-9.4-14-23.4-17.4-34.6c0.7-8.2,7.9-18.5,12.4-20.7
		c0,0,17-1.1,40.6,5.8c13.3,3.9,28.1,12.3,49.1,16.7c28.9,6,58.3,3.1,85.6-8.6c39-16.8,51.3-44.8,58.4-49.5
		c4.8-13.9,10.2-42.3,11.8-46.5c3.2-5.2,30.4-15.6,33-9.6C309.3,10.3,310.7,25,302.8,30.8L302.8,30.8z"/>
	<path fill-rule="evenodd" fill="#FFF200" d="M296.1,33.9c-1.7,5.4-3.9,17.9-3,32.4c-2.3-0.3-5.8,0.3-9.5,0.5
		c-4.6,0.2-9.3,0.9-12.2,1.9c-1-0.8-2.2-3-3.5-4.7c4.5-15,9.1-38.6,9.6-39.9c0.9-1.7,1.9-4.3,4.7-6c2.5-1.5,18.3-9.5,20.1-5.5
		c1.7,3.7,0.2,14.2-4.8,18.4c-4.5,0.9-8.6,2.8-13.5,2.7C288.4,34.6,292.3,33.7,296.1,33.9L296.1,33.9z M44,147.5
		c0.6,0,1.2,0.2,1.9,0.2c-6.3-7-12-14.6-16.7-23.4C32.9,133.1,38.1,140.6,44,147.5L44,147.5z M47.4,149.4c-0.8-0.1-1.7-0.3-2.4-0.4
		c25.6,29,69.1,42.1,97.6,43.5c36.4,1.9,86.7-7.3,119.8-28.4c-10.2,9.3-32.7,20.8-49.4,25.9c-16.7,5.2-36.1,8.4-57.8,8.7
		c-48.4,0.7-90-16.5-115.7-47.9c-6.2-7.5-10.2-16.5-14.4-26.9c6.9-0.5,10.5-11.1,12.8-16.2c0.5-1.2,1.2-2.3,1.3-3.2
		c7.7,0.8,19.9,2.4,33.7,6.3c12.7,3.6,26.9,11.8,47,15.8c27.6,5.6,57.9,3.5,84.1-7.5c32.4-13.7,49.2-38,57.5-47.1
		c0.8-0.9,3.2-3.3,4.4-3.6c0.7,0.8,1.7,1.4,2.2,2.3c-6.1,15.7-20.1,30.2-33.2,40.5c1.2-0.3,2.2-0.5,3.4-0.7
		c10.9-8.9,26.8-23,32.8-38.4c4.9-3.8,17.2-4.9,22.8-1.8c1.7,3.1,3.2,6.8,4.5,10.9c11.8,39-15.4,67.5-46.8,84.8
		c-16.8,9.3-36.7,16.5-58.1,20.3C143.1,195.4,84.4,188.5,47.4,149.4L47.4,149.4z M22.9,118c0.2-1.1,0.7-3.3,2-6.5
		c1.3-3.2,5.6-7.9,5.6-7.9s1.4,0.2,3.1,0.4c2.5,1.1,2.7,3.2,2.1,3.8c-3.3,3.4-5,7.6-8.1,10.7C26.3,119.8,24.1,118.9,22.9,118
		L22.9,118z M228.2,115.9c1.3-0.2,3-0.4,4.3-0.5c-32,24.3-73.5,32-113.1,24c-28.5-5.8-51.8-22-80.8-29.4c29,6.4,52.6,20.7,80.7,26.4
		C157,144,196.8,137.7,228.2,115.9L228.2,115.9z M271.8,66.5c2.7-1.3,10.3-27.9,8.7-41.5C276.5,48,273.4,61.4,271.8,66.5L271.8,66.5
		z"/>
	<path fill="#790000" d="M151.8,268.1c-0.7,3.6-1.4,7.1-2,10.7c-0.5,3.3-0.4,6,3.2,7.8L153,287c-4.7-1.6-6.9-2.1-12-2.5l0.1-0.5
		c2.1-0.1,3.4-0.8,4.3-1.9c-2.4-7.8-11-28.1-11.6-30.2c-1.5,7.5-3.2,15-4.4,22.6c-0.5,3.3-0.4,6,3.2,7.8l-0.1,0.5
		c-4.7-1.6-6.9-2.1-12-2.5l0.1-0.5c4-0.2,5.3-2.6,6.1-5.8c1.9-7.5,3.4-15.1,5.1-22.7c0.3-1.6,0.6-2.8-0.4-4.2
		c-0.5-0.8-1.2-1.4-1.9-1.8l0.1-0.5c2.5,1,5.4,2,8.1,1.9c0.5,3,8.3,21.1,10.4,27.4c0.5-2.1,1-4.3,1.4-6.4c0.7-3.5,1.4-7.1,2-10.7
		c0.5-3.3,0.4-6-3.2-7.8l0.1-0.5c4.8,1.7,7,2.1,12,2.5l-0.1,0.5c-4,0.2-5.3,2.6-6.1,5.8C153.4,261,152.6,264.5,151.8,268.1
		L151.8,268.1z M250,224.1c-2.9,3.5-3.4,4.1-6.3,7.6c-0.4-0.6-1-1.8-1.3-2.4c2.5-3.1,2.4-2.8,4.9-6c-4.6-1.6-6.4-1.9-11.7-3.5
		c3.4,6.4,10.4,19.8,14.3,24.8c1.5,2,4-0.2,4.4-0.6l0.4,0.3c-2.3,1.9-5.7,5.9-7,8.7l-0.4-0.3c0.3-0.5,1.1-2.1,0.6-3.9
		c-1.6-5.4-11.9-23.5-16.3-31c0.5-0.9,1.1-3.1,0.7-4c5.8,2.3,27.2,9.5,34.1,10.9c1.2,0.2,3.6-0.6,4.5-1.1l0.4,0.3
		c-2.6,2.3-6.1,6.5-7.7,9.5l-0.4-0.3c0.4-1.1,1.2-2.8-0.2-4C262,228.3,253.6,225.3,250,224.1L250,224.1z M225.6,247.1
		c1.8,3.1,3.7,6.2,5.7,9.3c1.8,2.8,3.7,4.7,7.6,3.6l0.2,0.4c-4.6,1.9-6.5,3-10.6,6.1l-0.2-0.4c1.5-1.5,2-2.9,2-4.3
		c-7-4.2-26.9-13.6-28.8-14.8c3.9,6.6,7.6,13.3,11.7,19.8c1.8,2.8,3.7,4.7,7.6,3.6l0.2,0.4c-4.6,1.9-6.5,3-10.6,6.1l-0.2-0.4
		c2.9-2.8,2.2-5.4,0.6-8.4c-3.6-6.9-7.5-13.5-11.4-20.3c-0.8-1.4-1.4-2.5-3.1-2.9c-0.9-0.2-1.8-0.3-2.6-0.1l-0.2-0.4
		c2.6-0.9,5.3-2.1,7.3-4c2.3,1.9,20.3,10.2,26,13.5c-1-1.9-2.1-3.8-3.2-5.7c-1.8-3.1-3.7-6.2-5.6-9.3c-1.8-2.8-3.7-4.7-7.6-3.6
		l-0.2-0.4c4.7-2,6.7-3.1,10.6-6.1l0.3,0.4c-2.9,2.8-2.2,5.4-0.7,8.4C222,240.7,223.8,243.9,225.6,247.1L225.6,247.1z M182.5,267.4
		c-4.5,0.8-5.3,0.8-9.8,1.6c0.2-0.7,0.4-2,0.6-2.7c4-0.7,3.7-0.5,7.7-1.2c-2.4-4.2-3.5-5.6-6.5-10.3c-1.7,7.1-5.3,21.7-5.7,28.1
		c-0.1,2.5,3.1,2.4,3.7,2.5l0.1,0.5c-3-0.1-8.2,0.7-11,1.8l-0.1-0.5c0.6-0.2,2.2-0.8,3-2.5c2.4-5.2,6.6-25.4,8.3-34
		c1-0.3,2.9-1.6,3.2-2.5c2.8,5.6,14,25.1,18.4,30.7c0.8,1,3.1,2,4.1,2.1l0.1,0.5c-3.5,0-8.8,0.9-12.1,2l-0.1-0.5
		c1-0.6,2.7-1.3,2.4-3.1C188.6,278.5,184.3,270.7,182.5,267.4L182.5,267.4z M107.9,255.2c-3.9-2.4-4.5-2.9-8.4-5.3
		c0.6-0.4,1.6-1.2,2.2-1.6c3.4,2.1,3.1,2,6.6,4.2c1-4.8,1.1-6.6,1.9-12c-5.9,4.2-18.3,12.8-22.8,17.3c-1.7,1.8,0.7,3.9,1.2,4.3
		l-0.3,0.4c-2.2-2-6.6-4.9-9.5-5.9l0.3-0.4c0.6,0.2,2.2,0.8,3.9,0.1c5.2-2.3,21.8-14.7,28.7-20.1c0.9,0.4,3.2,0.7,4.1,0.2
		c-1.6,6.1-6,28.2-6.5,35.2c-0.1,1.2,1,3.5,1.7,4.3l-0.3,0.4c-2.6-2.3-7.2-5.2-10.4-6.5l0.3-0.4c1.1,0.2,2.9,0.8,3.9-0.7
		C105.2,267.6,107.1,258.9,107.9,255.2L107.9,255.2z M53.3,227.5c0.1-0.1,0.3-0.2,0.4-0.3c1,1,2.3,1.8,3.8,1.7c0.5,0,1.1-0.3,2-0.9
		c3.5-2.2,6.8-4.8,10.1-7.3c1.3-1,2.6-2,4-3c2.8-2.1,5.7-4.3,8.1-6.7c0.6-0.6,1-1.1,1.1-1.5c0.3-1.3-0.2-2.7-0.8-3.8
		c0.1-0.1,0.3-0.2,0.4-0.3c1.1,1.9,2.3,3.7,3.6,5.4c2.9,3.9,7.2,7.9,8.5,12.7c1.4,5.4-3,11.6-8.8,9.9c-1-0.3-1.9-0.7-2.8-1.2
		c3.3,8.6-4.8,18.3-14.1,13.3c-4.8-2.6-6.8-6.8-9.9-11C57,231.8,55.2,229.7,53.3,227.5L53.3,227.5z M77,223c3.9,6.4,10.4,7,12.9,3.8
		c3-3.8-0.3-9.4-2.9-12.3c-2.9,1.6-6.8,4.8-9.8,7c-1.5,1.1-2.9,2.2-4.4,3.3c-3.5,2.7-8.7,6.1-11.5,9.1c0.8,1.3,2.1,3,3,4
		c2.4,2.7,5.8,4.8,10,3c4.8-2.1,6.5-10,0.5-16.3L77,223L77,223z"/>
	<g>
		<path fill="#790000" d="M111.4,300.6c0,3-1.5,6.3-4.5,9.9c-3,3.6-7.6,6.5-13.7,8.8c-6.1,2.3-12.1,3.4-17.9,3.4
			c-5.8,0-10.3-0.7-13.7-2.2c-7.5,11-12.3,17.6-14.6,19.8c-6.4,6.4-14,9.6-22.9,9.6c-5,0-8.8-1.2-11.3-3.5C10.3,344,9,341,9,337.3
			c0-5.2,2.1-10,6.2-14.6c4.6-5,10.3-7.5,17.2-7.5c2.8,0,5.2,0.7,7.2,2c2,1.3,2.9,3.3,2.9,6c0,1.8-1,3.9-3,6.4
			c-2,2.5-3.3,3.7-3.7,3.7c-0.1,0-0.2-0.1-0.2-0.4c0-0.2,0.1-0.5,0.3-0.7c1.9-2.8,2.8-5.3,2.8-7.7c0-2.3-0.7-4.1-2.2-5.4
			c-1.5-1.3-3.2-1.9-5.4-1.9c-5,0-9.4,2.3-13.2,6.8c-3.8,4.5-5.7,9.1-5.7,13.7c0,3,0.9,5.4,2.8,7.2c1.9,1.8,4.8,2.8,8.7,2.8
			c7.3,0,13.5-2.5,18.7-7.4c3-2.8,6.1-7,9.1-12.4l7.7-13.9c3.8-6.1,8.2-15.2,13.2-27.2c-0.5,0-1.1,0-1.6,0c-8,0-16,0.9-24.1,2.6
			c-8.1,1.7-14.2,4.2-18.3,7.5c-1.8,1.4-2.7,2.7-2.7,4c0,1.3,0.7,2.4,2.1,3.2c1.4,0.8,3,1.2,4.9,1.2c1.9,0,4.2-0.4,7.1-1.1
			c2.8-0.7,4.9-1.7,6.4-3c0.6-0.5,1-0.7,1.2-0.7c0.5,0,0.6,0.2,0.3,0.7c-2.1,2.5-5.4,4.4-9.7,5.6c-2.7,0.8-5.3,1.2-7.9,1.2
			c-2.6,0-4.7-0.6-6.4-1.7c-1.7-1.2-2.5-2.7-2.5-4.7c0-2,1.1-4,3.2-6c4-3.9,11.2-6.8,21.6-8.7c7.3-1.3,15.8-2,25.3-2
			c0.8,0,1.6,0,2.4,0c1.3-1.1,2.5-1.7,3.6-1.7c1.1,0,1.6,0.4,1.6,1.2c0,0.2,0,0.4-0.1,0.6c9.2,0.7,16.6,2.2,22.3,4.6
			C108,292.3,111.4,296,111.4,300.6z M107.2,299.7c0-3.7-3-6.8-9.1-9.1c-5.3-2.1-11.9-3.3-19.8-3.7l-2.8,8.9
			c-2.3,5.6-6.6,13.3-13,23.3c0.6,0.3,1.6,0.6,3,1c2.4,0.4,4.2,0.6,5.5,0.6c4.5,0,9.7-0.9,15.5-2.8c5.9-1.9,10.8-4.6,14.7-8.2
			C105.3,306,107.2,302.7,107.2,299.7z"/>
		<path fill="#790000" d="M128.6,313.7l1.2-0.3c0.7,0,1.3,0.3,1.9,0.8c0.6,0.5,0.9,0.9,0.9,1.2c0,0.3-1.8,3.2-5.5,8.6
			c-3.7,5.4-5.5,9.2-5.5,11.3c0,0.2,0,0.4,0.1,0.5c0.3,1.4,0.9,2,2,2c3.1,0,8.7-5.1,16.9-15.3c0.2-0.2,0.4-0.4,0.6-0.4
			c0.2,0,0.4,0.2,0.4,0.7c0,0.4-0.3,1-0.8,1.7c-7.6,10.1-13.4,15.2-17.3,15.2c-0.5,0-1-0.1-1.5-0.3c-2.6-1-3.9-3-3.9-5.9
			c0-1,0.1-2,0.4-3l-5.5,5.3c-3.5,3.1-6,4.6-7.6,4.6c-1.6,0-3.1-0.5-4.5-1.5c-1.6-1.2-2.4-2.8-2.4-4.7c0-4.3,3-9.5,9.1-15.5
			s11.6-9,16.6-9c2,0,3.3,0.7,3.9,2c0.2,0.5,0.3,0.9,0.4,1.2C128.5,313.6,128.6,313.7,128.6,313.7z M102.1,335.6
			c0,2.1,0.7,3.2,2.2,3.2c3.4,0,8.1-3.8,14-11.3l9.4-13c-0.5-0.8-1.2-1.2-2.3-1.2c-3.6,0-8.4,2.8-14.4,8.4
			C105.1,327.3,102.1,331.9,102.1,335.6z"/>
		<path fill="#790000" d="M150,312.2c1.6,0,2.4,0.6,2.4,1.9c0,0.4-0.1,0.7-0.3,1.1c-5.3,7.4-8.5,13-9.6,16.8
			c13.8-13.8,22.2-20.7,25.1-20.7c0.3-0.1,0.6-0.1,0.8-0.1c1.7,0,2.5,0.7,2.5,2.2c0,0.3-0.1,0.6-0.2,0.9c-0.1,0.3-1.3,1.9-3.6,4.8
			c-2.6,3.1-4.8,6-6.6,8.9c-1.8,2.8-2.7,5.2-2.7,7.1c0,1.9,0.4,2.8,1.2,2.8c2.6,0,7.1-3.6,13.6-10.7c0.1-0.1,0.3-0.4,0.6-0.8
			c0.9-1.1,1.4-1.6,1.6-1.6s0.3,0.3,0.3,0.9c0,0.6-0.4,1.4-1.2,2.3c-7.3,8.3-12.6,12.5-15.6,12.5c-2.9,0-4.4-1.6-4.4-4.8
			s1.2-6.9,3.6-11l5.7-9.2c-4,3-7.6,6.2-10.7,9.7c-3.1,3.5-6,6.9-8.6,10.3c-2.6,3.3-4.1,5-4.5,5c-0.9,0-1.6-0.4-2.1-1.1
			c-0.5-0.7-0.8-1.7-0.8-2.8s0.4-2.6,1.2-4.4c0.8-1.8,1.7-4.1,2.9-6.7l-5.3,5.6c-1.3,1.3-2.1,2-2.4,2c-0.3,0-0.5-0.2-0.5-0.6
			c0-0.4,0.2-0.8,0.7-1.3c2.2-2.2,4.1-4.3,5.7-6.3c1.5-2,4.7-5.9,9.5-11.5C148.8,312.6,149.4,312.2,150,312.2z"/>
		<path fill="#790000" d="M178.2,341.4c-0.7,0-1.2-0.1-1.8-0.3c-3.8-1.1-5.7-3.2-5.7-6.4c0-4.1,2.6-8.9,7.8-14.4
			c5.2-5.4,9.9-8.2,14-8.2c1.4,0,2.5,0.4,3.3,1.1c0.9,0.7,1.3,1.7,1.3,3c0,1.3-0.4,2.6-1.2,4c-0.8,1.4-1.9,2.1-3.5,2.1
			c-1.5,0-2.3-0.5-2.3-1.4c0-0.7,0.4-1.6,1.2-3c0.8-1.3,1.2-2,1.2-2.1c0-0.1-0.1-0.1-0.3-0.1c-1.7,0.2-3.9,1.4-6.8,3.6
			c-2.9,2.2-4.8,4-5.9,5.5l-3.5,5.1c-0.6,0.9-1,2.1-1.3,3.4c-0.3,1.3-0.4,2.3-0.4,2.9c0,0.7,0.4,1.4,1.1,2.2
			c0.7,0.8,1.8,1.2,3.2,1.2c3,0,6.6-1.7,11-5.2s7.8-6.8,10.1-9.9c0.3-0.4,0.7-0.5,1.1-0.5c0.4,0,0.6,0.1,0.6,0.4
			c0,0.2-0.1,0.5-0.4,0.9c-3.3,4.3-7.2,8.1-11.7,11.3C185,339.8,181.2,341.4,178.2,341.4z"/>
		<path fill="#790000" d="M226.2,313.7l1.2-0.3c0.7,0,1.3,0.3,1.9,0.8c0.6,0.5,0.9,0.9,0.9,1.2c0,0.3-1.8,3.2-5.5,8.6
			c-3.7,5.4-5.5,9.2-5.5,11.3c0,0.2,0,0.4,0.1,0.5c0.3,1.4,0.9,2,2,2c3.1,0,8.7-5.1,16.9-15.3c0.2-0.2,0.4-0.4,0.6-0.4
			c0.2,0,0.4,0.2,0.4,0.7c0,0.4-0.3,1-0.8,1.7c-7.6,10.1-13.4,15.2-17.3,15.2c-0.5,0-1-0.1-1.5-0.3c-2.6-1-3.9-3-3.9-5.9
			c0-1,0.1-2,0.4-3l-5.5,5.3c-3.5,3.1-6,4.6-7.6,4.6c-1.6,0-3.1-0.5-4.5-1.5c-1.6-1.2-2.4-2.8-2.4-4.7c0-4.3,3-9.5,9.1-15.5
			c6-6,11.6-9,16.6-9c2,0,3.3,0.7,3.9,2c0.2,0.5,0.3,0.9,0.4,1.2C226,313.6,226.1,313.7,226.2,313.7z M199.6,335.6
			c0,2.1,0.7,3.2,2.2,3.2c3.4,0,8.1-3.8,14-11.3l9.4-13c-0.5-0.8-1.2-1.2-2.3-1.2c-3.6,0-8.4,2.8-14.4,8.4
			C202.6,327.3,199.6,331.9,199.6,335.6z"/>
		<path fill="#790000" d="M251.4,341.4c-4.7,0-8.6-3.7-11.9-11.1c-0.8,1.2-2.7,4.7-5.6,10.5c-2.1-0.8-3.2-2-3.2-3.4
			c0-2.5,3.8-9.5,11.5-21c7.6-11.4,12.9-18.1,15.7-20.2c0.2-0.2,0.7-0.3,1.4-0.3c1.8,0,2.8,0.5,2.8,1.4c0,0.5-2.1,3.1-6.2,8
			c-4.1,4.9-6.4,7.8-6.9,8.8c5.4-2.8,9.7-4.2,12.9-4.2c1.8,0,3.4,0.7,4.7,2.2c1.2,1.2,1.9,2.5,1.9,3.8c0,0.2,0,0.4,0,0.5
			c-0.5,3.4-2.8,6.2-7.1,8.3c-3.4,1.8-6.6,2.8-9.6,2.8c-3,0-5-0.4-6.2-1.2c-0.4-0.1-0.6,0-0.8,0.3c-0.2,0.2-0.3,0.5-0.1,0.9
			c1.7,7.3,4.4,11,8.3,11c2,0,4.6-1.1,7.8-3.4c3.2-2.2,6.5-5.4,9.9-9.5c0.4-0.4,0.8-0.6,1.1-0.6c0.3,0,0.5,0.2,0.5,0.5
			c0,0.3-0.2,0.8-0.6,1.4c-3.2,3.9-6.2,7-9.1,9.2C258.1,339.7,254.4,341.4,251.4,341.4z M264.2,314.2c0-0.5-0.3-0.9-0.8-1.4
			c-0.5-0.5-1.1-0.7-1.7-0.7c-3.2,0-7,1.3-11.5,4c-4.5,2.7-7.2,5.7-8.2,9.1c0.5,0,2,0.1,4.3,0.3c2.7,0,6.2-1.1,10.5-3.3
			C261.7,319.6,264.2,317,264.2,314.2z"/>
		<path fill="#790000" d="M272.7,341.4c-0.7,0-1.2-0.1-1.8-0.3c-3.8-1.1-5.7-3.2-5.7-6.4c0-4.1,2.6-8.9,7.8-14.4
			c5.2-5.4,9.9-8.2,14-8.2c1.4,0,2.5,0.4,3.3,1.1c0.9,0.7,1.3,1.6,1.3,2.7c0,3.3-2.5,6.5-7.5,9.5c-5,3-9.1,4.5-12.2,4.5
			c-0.5,0-0.9-0.1-1.2-0.2c-0.9,1.6-1.3,3.3-1.3,5.1c0,3.1,1.5,4.6,4.4,4.6c2.9,0,6.7-2,11.4-6c3.6-2.9,6.7-6,9.2-9.2
			c0.5-0.7,1-1.1,1.4-1.1c0.4,0,0.6,0.2,0.6,0.5c0,0.4-0.2,0.9-0.7,1.5c-3.2,4.2-7,7.9-11.5,11.2
			C279.7,339.8,275.8,341.4,272.7,341.4z M289.5,315.9c0-0.7-0.8-1.1-2.3-1.1c-1.5,0-3.7,1.2-6.4,3.5c-3.7,3.1-6.6,6.3-8.7,9.7
			c0.4,0.1,0.7,0.2,1.2,0.2c2.2,0,5.3-1.2,9-3.6c3.8-2.4,6.1-5,7.1-7.9C289.4,316.4,289.5,316.1,289.5,315.9z"/>
	</g>
</g>
</svg>
