<svg viewBox="-74 1 511 511.99895" xmlns="http://www.w3.org/2000/svg"><path d="m82.695312 7.5h-9.363281c-3.578125 0-6.582031 2.6875-6.976562 6.242188l-11.375 102.703124h46.066406l-11.375-102.703124c-.394531-3.554688-3.398437-6.242188-6.976563-6.242188zm0 0" fill="#fc4e51"/><path d="m133.75 147.324219v-21.226563h-111.472656v21.226563c0 1.472656-.613282 2.878906-1.695313 3.882812l-10.890625 10.125c-1.078125 1.003907-1.691406 2.410157-1.691406 3.882813v316.292968c0 12.699219 10.292969 22.992188 22.992188 22.992188h94.042968c12.699219 0 22.992188-10.292969 22.992188-22.992188v-316.292968c0-1.472656-.613282-2.878906-1.691406-3.882813l-10.890626-10.125c-1.082031-1.003906-1.695312-2.410156-1.695312-3.882812zm0 0" fill="#fc4e51"/><path d="m291.65625 7.5h-9.363281c-3.578125 0-6.582031 2.6875-6.976563 6.242188l-11.378906 102.703124h46.070312l-11.378906-102.703124c-.390625-3.554688-3.394531-6.242188-6.972656-6.242188zm0 0" fill="#fccf3f"/><path d="m342.714844 147.324219v-21.226563h-111.476563v21.226563c0 1.472656-.613281 2.878906-1.691406 3.882812l-10.894531 10.125c-1.078125 1.003907-1.691406 2.410157-1.691406 3.882813v316.292968c0 12.699219 10.292968 22.992188 22.992187 22.992188h94.042969c12.699218 0 22.992187-10.292969 22.992187-22.992188v-316.292968c0-1.472656-.609375-2.878906-1.691406-3.882813l-10.890625-10.125c-1.082031-1.003906-1.691406-2.410156-1.691406-3.882812zm0 0" fill="#fccf3f"/><path d="m355.296875 161.332031-10.894531-10.125c-1.078125-1.003906-1.691406-2.410156-1.691406-3.882812v-21.230469h-57.660157v22.828125c0 .453125.1875.886719.523438 1.195313l13.230469 12.300781c.332031.308593.523437.742187.523437 1.199219v321.554687c0 10.671875-8.652344 19.328125-19.328125 19.328125h53.996094c12.699218 0 22.992187-10.296875 22.992187-22.992188v-316.296874c0-1.46875-.613281-2.875-1.691406-3.878907zm0 0" fill="#efc03c"/><path d="m146.335938 161.332031-10.890626-10.125c-1.082031-1.003906-1.695312-2.410156-1.695312-3.882812v-21.230469h-57.660156v22.828125c0 .453125.1875.886719.523437 1.195313l13.230469 12.300781c.332031.308593.523438.742187.523438 1.199219v321.554687c0 10.671875-8.652344 19.328125-19.328126 19.328125h54c12.695313 0 22.992188-10.296875 22.992188-22.992188v-316.296874c-.003906-1.46875-.617188-2.875-1.695312-3.878907zm0 0" fill="#ea3942"/><path d="m344.214844 135.699219h-114.476563c-2.871093 0-5.070312-2.542969-4.65625-5.382813l3.253907-22.25c.335937-2.3125 2.316406-4.027344 4.652343-4.027344h107.972657c2.335937 0 4.316406 1.714844 4.65625 4.027344l3.25 22.25c.417968 2.839844-1.785157 5.382813-4.652344 5.382813zm0 0" fill="#efa335"/><path d="m216.960938 236.039062h140.027343v179.152344h-140.027343zm0 0" fill="#f3e8d7"/><path d="m299.328125 236.039062h57.660156v179.152344h-57.660156zm0 0" fill="#e5d8c6"/><path d="m135.25 135.699219h-114.472656c-2.871094 0-5.070313-2.542969-4.65625-5.382813l3.25-22.25c.339844-2.3125 2.320312-4.027344 4.65625-4.027344h107.972656c2.335938 0 4.316406 1.714844 4.65625 4.027344l3.25 22.25c.417969 2.839844-1.785156 5.382813-4.65625 5.382813zm0 0" fill="#ea3942"/><path d="m139.910156 130.316406-3.253906-22.253906c-.339844-2.308594-2.320312-4.023438-4.65625-4.023438h-52.261719l4.628907 31.660157h50.886718c2.867188 0 5.070313-2.542969 4.65625-5.382813zm0 0" fill="#d82e3f"/><path d="m348.554688 130.316406-3.253907-22.253906c-.339843-2.308594-2.320312-4.023438-4.65625-4.023438h-52.261719l4.628907 31.660157h50.886719c2.871093 0 5.070312-2.542969 4.65625-5.382813zm0 0" fill="#efa130"/><path d="m8 236.039062h140.027344v179.152344h-140.027344zm0 0" fill="#f3e8d7"/><path d="m90.367188 236.039062h57.660156v179.152344h-57.660156zm0 0" fill="#e5d8c6"/><path d="m151.441406 155.839844-10.1875-9.472656v-4.753907c1.203125-.683593 2.304688-1.5625 3.230469-2.636719 2.320313-2.683593 3.355469-6.234374 2.84375-9.746093l-3.253906-22.25c-.867188-5.953125-6.058594-10.4375-12.074219-10.4375h-25.609375l-9.265625-83.625c-.816406-7.363281-7.019531-12.917969-14.429688-12.917969h-9.363281c-7.410156 0-13.609375 5.554688-14.429687 12.917969l-9.261719 83.621093h-25.613281c-6.011719 0-11.207032 4.488282-12.074219 10.441407l-3.253906 22.25c-.511719 3.511719.523437 7.0625 2.84375 9.746093.925781 1.074219 2.027343 1.953126 3.234375 2.636719v4.753907l-10.191406 9.472656c-2.597657 2.414062-4.085938 5.832031-4.085938 9.375v316.292968c0 16.8125 13.675781 30.492188 30.492188 30.492188h94.042968c16.8125 0 30.492188-13.679688 30.492188-30.492188v-316.292968c0-3.542969-1.488282-6.960938-4.085938-9.375zm-77.679687-140.839844h8.503906l9.03125 81.539062h-26.566406zm-47.316407 96.539062h103.140626l2.433593 16.664063h-108.011719zm114.082032 369.96875c0 8.542969-6.949219 15.492188-15.492188 15.492188h-94.042968c-8.542969 0-15.492188-6.949219-15.492188-15.492188v-58.816406h125.027344zm0-252.96875h-75.574219c-4.140625 0-7.5 3.355469-7.5 7.5 0 4.140626 3.359375 7.5 7.5 7.5h75.574219v164.152344h-125.027344v-164.152344h14.558594c4.140625 0 7.5-3.359374 7.5-7.5 0-4.144531-3.359375-7.5-7.5-7.5h-14.558594v-62.367187l10.1875-9.472656c2.597656-2.410157 4.085938-5.828125 4.085938-9.375v-4.125h96.480468v4.125c0 3.546875 1.488282 6.964843 4.082032 9.375l10.191406 9.472656zm.699218-61.71875.003907.003907v.003906c0-.003906-.003907-.007813-.003907-.007813zm0 0"/><path d="m360.402344 155.839844-10.191406-9.472656v-4.753907c1.207031-.683593 2.304687-1.5625 3.234374-2.636719 2.320313-2.683593 3.355469-6.234374 2.84375-9.746093l-3.253906-22.25c-.867187-5.953125-6.058594-10.4375-12.074218-10.4375h-25.609376l-9.265624-83.625c-.816407-7.363281-7.019532-12.917969-14.429688-12.917969h-9.363281c-7.410157 0-13.613281 5.554688-14.429688 12.917969l-9.261719 83.621093h-25.613281c-6.011719 0-11.207031 4.488282-12.074219 10.441407l-3.253906 22.25c-.511718 3.511719.523438 7.0625 2.84375 9.746093.929688 1.074219 2.027344 1.953126 3.234375 2.636719v4.753907l-10.191406 9.472656c-2.597656 2.414062-4.085937 5.828125-4.085937 9.375v316.292968c0 16.8125 13.679687 30.492188 30.492187 30.492188h94.046875c16.8125 0 30.492188-13.679688 30.492188-30.492188v-316.292968c-.003907-3.542969-1.492188-6.960938-4.089844-9.375zm-77.675782-140.839844h8.5l9.03125 81.539062h-26.566406zm-47.320312 96.539062h103.136719l2.4375 16.664063h-108.011719zm114.082031 296.152344h-70.648437c-4.144532 0-7.5 3.359375-7.5 7.5 0 4.144532 3.355468 7.5 7.5 7.5h70.648437v58.816406c0 8.542969-6.949219 15.492188-15.492187 15.492188h-94.042969c-8.542969 0-15.496094-6.949219-15.496094-15.492188v-58.816406h19.488281c4.140626 0 7.5-3.355468 7.5-7.5 0-4.140625-3.359374-7.5-7.5-7.5h-19.488281v-164.152344h125.03125zm0-179.152344h-125.027343v-62.367187l10.1875-9.472656c2.597656-2.410157 4.085937-5.828125 4.085937-9.375v-4.125h96.476563v4.125c0 3.546875 1.492187 6.964843 4.085937 9.375l10.191406 9.472656zm0 0"/></svg>