<svg viewBox="0 -16 511.99988 511" xmlns="http://www.w3.org/2000/svg"><path d="m424.738281 104.605469c-13.167969-.953125-25.746093 1.09375-37.164062 5.476562-14.421875-58.601562-67.316407-102.070312-130.367188-102.070312-44.632812 0-84.175781 21.785156-108.585937 55.296875-10.199219-3.136719-21.03125-4.824219-32.261719-4.804688-59.171875.089844-107.960937 48.203125-108.835937 107.367188-.800782 54.109375 37.828124 99.34375 89.003906 108.832031 7.050781 1.308594 12.101562 7.570313 12.101562 14.742187v163.488282c0 10.941406 8.867188 19.8125 19.808594 19.8125h255.121094c10.941406 0 19.8125-8.871094 19.8125-19.8125v-161.359375c0-8.304688 6.730468-15.039063 15.035156-15.039063 48.777344 0 88.078125-40.566406 86.003906-89.800781-1.828125-43.398437-36.347656-78.996094-79.671875-82.128906zm0 0" fill="#efefef"/><path d="m323.597656 90.273438c4.3125 10.261718 14.933594 16.332031 25.96875 14.859374 5.753906-.769531 11.6875-.96875 17.75-.527343 6.867188.496093 13.507813 1.8125 19.835938 3.839843-14.996094-57.769531-67.480469-100.433593-129.945313-100.433593-9.851562 0-19.457031 1.0625-28.703125 3.078125 43.042969 9.378906 78.367188 39.40625 95.09375 79.183594zm0 0" fill="#e2e2e2"/><path d="m504.410156 186.734375c-1.828125-43.398437-36.347656-78.996094-79.671875-82.128906-12.367187-.894531-24.210937.859375-35.0625 4.707031 32.308594 11.488281 55.8125 41.820312 57.3125 77.421875 2.074219 49.238281-37.226562 84.796875-86.003906 84.796875-8.304687 0-15.035156 6.730469-15.035156 15.035156v166.367188c0 10.941406-8.871094 19.8125-19.8125 19.8125h57.421875c10.941406 0 19.808594-8.871094 19.808594-19.8125v-161.359375c0-8.304688 6.734374-15.039063 15.039062-15.039063 48.777344.003906 88.078125-40.5625 86.003906-89.800781zm0 0" fill="#e2e2e2"/><path d="m128.4375 472.746094h255.121094c10.941406 0 19.8125-8.871094 19.8125-19.8125v-35.957032h-294.742188v35.957032c0 10.941406 8.867188 19.8125 19.808594 19.8125zm0 0" fill="#d8d8d8"/><path d="m345.949219 452.933594c0 10.941406-8.867188 19.808594-19.808594 19.8125h57.417969c3.421875 0 6.636718-.867188 9.445312-2.390625 3.367188-1.832031 6.144532-4.609375 7.976563-7.980469 1.21875-2.242188 2.015625-4.753906 2.289062-7.417969.066407-.664062.101563-1.339843.101563-2.023437v-35.957032h-57.421875zm0 0" fill="#cccac6"/><path d="m143.527344 311.484375v69.4375c0 4.148437 3.363281 7.511719 7.511718 7.511719 4.148438 0 7.511719-3.363282 7.511719-7.511719v-69.4375c0-4.148437-3.363281-7.511719-7.511719-7.511719-4.148437 0-7.511718 3.363282-7.511718 7.511719zm0 0"/><path d="m199.9375 380.921875v-69.4375c0-4.148437-3.363281-7.511719-7.507812-7.511719-4.148438 0-7.511719 3.363282-7.511719 7.511719v69.4375c0 4.148437 3.363281 7.511719 7.511719 7.511719 4.144531 0 7.507812-3.363282 7.507812-7.511719zm0 0"/><path d="m242.816406 380.921875v-69.4375c0-4.148437-3.363281-7.511719-7.511718-7.511719-4.148438 0-7.511719 3.363282-7.511719 7.511719v69.4375c0 4.148437 3.363281 7.511719 7.511719 7.511719 4.148437 0 7.511718-3.363282 7.511718-7.511719zm0 0"/><path d="m284.203125 380.921875v-69.4375c0-4.148437-3.363281-7.511719-7.507813-7.511719-4.148437 0-7.511718 3.363282-7.511718 7.511719v69.4375c0 4.148437 3.363281 7.511719 7.511718 7.511719 4.144532 0 7.507813-3.363282 7.507813-7.511719zm0 0"/><path d="m319.570312 388.433594c4.148438 0 7.511719-3.363282 7.511719-7.511719v-69.4375c0-4.148437-3.363281-7.511719-7.511719-7.511719-4.148437 0-7.511718 3.363282-7.511718 7.511719v69.4375c0 4.148437 3.363281 7.511719 7.511718 7.511719zm0 0"/><path d="m368.472656 380.921875v-69.4375c0-4.148437-3.363281-7.511719-7.511718-7.511719-4.148438 0-7.511719 3.363282-7.511719 7.511719v69.4375c0 4.148437 3.363281 7.511719 7.511719 7.511719 4.148437 0 7.511718-3.363282 7.511718-7.511719zm0 0"/><path d="m511.914062 186.421875c-.960937-22.839844-10.332031-44.53125-26.386718-61.082031-16.058594-16.554688-37.453125-26.578125-60.25-28.226563-11.113282-.804687-22.039063.320313-32.582032 3.34375-8.386718-27.117187-25.007812-51.488281-47.398437-69.265625-25.277344-20.078125-55.742187-30.691406-88.089844-30.691406-25.503906 0-50.511719 6.851562-72.324219 19.816406-3.5625 2.117188-4.738281 6.726563-2.617187 10.292969 2.117187 3.566406 6.726563 4.738281 10.296875 2.621094 19.488281-11.585938 41.84375-17.707031 64.644531-17.707031 58.503907 0 109.113281 39.621093 123.074219 96.355468.515625 2.09375 1.90625 3.863282 3.816406 4.863282s4.15625 1.128906 6.167969.355468c10.84375-4.164062 22.253906-5.84375 33.929687-5 19.109376 1.378906 37.0625 9.796875 50.546876 23.703125 13.484374 13.902344 21.355468 32.101563 22.160156 51.25.914062 21.660157-6.820313 42.175781-21.777344 57.773438-14.964844 15.609375-35.105469 24.203125-56.722656 24.203125-12.429688 0-22.546875 10.113281-22.546875 22.546875v117.894531h-52.242188c-4.148437 0-7.511719 3.363281-7.511719 7.511719 0 4.144531 3.363282 7.507812 7.511719 7.507812h52.242188v28.445313c0 6.785156-5.515625 12.300781-12.296875 12.300781h-255.121094c-6.78125 0-12.300781-5.515625-12.300781-12.300781v-28.445313h192.527343c4.148438 0 7.507813-3.363281 7.507813-7.507812 0-4.148438-3.359375-7.511719-7.507813-7.511719h-192.523437v-120.023438c0-10.863281-7.675781-20.167968-18.242187-22.128906-23.246094-4.308594-44.40625-16.769531-59.578126-35.089844-15.375-18.554687-23.644531-42.082031-23.285156-66.246093.8125-55.035157 46.273438-99.882813 101.335938-99.964844h.160156c10.179688 0 20.234375 1.503906 29.882812 4.46875 3.066407.945313 6.390626-.164063 8.277344-2.753906 3.578125-4.910157 7.546875-9.609375 11.789063-13.960938 2.898437-2.96875 2.839843-7.722656-.128907-10.621093-2.96875-2.898438-7.726562-2.839844-10.621093.128906-3.523438 3.613281-6.875 7.433594-10 11.40625-9.503907-2.453125-19.300781-3.691406-29.199219-3.691406-.0625 0-.125 0-.183594 0-63.214844.097656-115.402344 51.582031-116.3359372 114.769531-.4101568 27.730469 9.0859372 54.742187 26.7382812 76.046875 17.414062 21.023437 41.710938 35.328125 68.40625 40.277344 3.453125.640624 5.960938 3.734374 5.960938 7.359374v163.488282c0 15.066406 12.253906 27.324218 27.320312 27.324218h255.121094c15.066406 0 27.320312-12.257812 27.320312-27.324218v-161.359375c0-4.148438 3.378906-7.523438 7.527344-7.523438 25.746094 0 49.742188-10.238281 67.566406-28.828125 17.8125-18.582031 27.027344-43.015625 25.941406-68.800781zm0 0"/></svg>