<svg viewBox="-22 1 511 511.999" xmlns="http://www.w3.org/2000/svg"><path d="m417.851562 101.847656v-80.699218c0-7.539063-6.113281-13.648438-13.648437-13.648438h-340.851563c-7.535156 0-13.648437 6.109375-13.648437 13.648438v80.699218l-41.703125 139.820313v235.722656c0 14.972656 12.136719 27.109375 27.109375 27.109375h397.335937c14.972657 0 27.109376-12.136719 27.109376-27.109375v-235.722656zm-55.9375-46.90625c0 10.875-8.8125 19.6875-19.6875 19.6875h-216.898437c-10.875 0-19.6875-8.8125-19.6875-19.6875 0-10.871094 8.8125-19.683594 19.6875-19.683594h216.902344c10.871093 0 19.683593 8.8125 19.683593 19.683594zm0 0" fill="#d38231"/><path d="m417.851562 101.847656v-80.699218c0-7.539063-6.113281-13.648438-13.648437-13.648438h-44.011719v39.417969c1.097656 2.453125 1.722656 5.164062 1.722656 8.027343 0 2.859376-.625 5.570313-1.722656 8.023438v38.878906l41.707032 139.824219v262.832031h30.546874c14.972657 0 27.109376-12.140625 27.109376-27.113281v-235.722656zm0 0" fill="#c1752f"/><path d="m459.554688 241.667969h-451.554688l41.703125-139.820313h368.148437zm0 0" fill="#e88c38"/><path d="m459.554688 241.667969-41.703126-139.820313h-57.660156l41.707032 139.820313zm0 0" fill="#d38231"/><path d="m264.238281 183.972656h-60.917969c-6.550781 0-11.679687-5.628906-11.070312-12.152344l6.53125-69.972656h69.992188l6.53125 69.972656c.609374 6.523438-4.519532 12.152344-11.066407 12.152344zm0 0" fill="#fc4e51"/><path d="m201.597656 370.9375h129.289063c4.140625 0 7.5-3.355469 7.5-7.496094 0-4.144531-3.359375-7.5-7.5-7.5h-129.289063c-4.140625 0-7.5 3.355469-7.5 7.5 0 4.140625 3.359375 7.496094 7.5 7.496094zm0 0"/><path d="m136.667969 370.9375h30.03125c4.140625 0 7.5-3.355469 7.5-7.496094 0-4.144531-3.355469-7.5-7.5-7.5h-30.03125c-4.140625 0-7.5 3.355469-7.5 7.5 0 4.140625 3.359375 7.496094 7.5 7.496094zm0 0"/><path d="m304.617188 398.109375h-141.679688c-4.140625 0-7.5 3.355469-7.5 7.496094s3.355469 7.5 7.5 7.5h141.679688c4.140624 0 7.5-3.355469 7.5-7.5 0-4.140625-3.359376-7.496094-7.5-7.496094zm0 0"/><path d="m369.414062 54.941406c0-14.988281-12.195312-27.183594-27.183593-27.183594h-216.90625c-14.988281 0-27.183594 12.195313-27.183594 27.183594 0 14.992188 12.195313 27.1875 27.183594 27.1875h216.902343c14.992188 0 27.1875-12.195312 27.1875-27.1875zm-27.183593 12.191406h-216.90625c-6.71875 0-12.1875-5.46875-12.1875-12.1875 0-6.722656 5.46875-12.1875 12.1875-12.1875h216.902343c6.722657 0 12.1875 5.464844 12.1875 12.1875 0 6.71875-5.464843 12.1875-12.183593 12.1875zm0 0"/><path d="m466.984375 240.691406c-.011719-.078125-.023437-.152344-.035156-.226562-.046875-.300782-.113281-.597656-.195313-.882813-.003906-.019531-.007812-.035156-.011718-.054687l-.015626-.046875c-.003906-.019531-.011718-.042969-.015624-.0625l-41.363282-138.664063v-79.605468c0-11.660157-9.484375-21.148438-21.144531-21.148438h-340.851563c-11.660156 0-21.144531 9.488281-21.144531 21.148438v79.605468l-41.363281 138.660156c-.003906.023438-.011719.042969-.015625.066407l-.015625.046875c-.003906.015625-.007812.035156-.011719.050781-.082031.289063-.148437.585937-.195312.886719-.011719.074218-.023438.148437-.035157.226562-.042968.320313-.070312.644532-.070312.976563v235.722656c0 19.082031 15.527344 34.609375 34.609375 34.609375h397.335937c19.082032 0 34.609376-15.527344 34.609376-34.609375v-235.71875c0-.335937-.027344-.660156-.070313-.980469zm-411.691406-131.34375h135.257812l-5.769531 61.777344c-.484375 5.203125 1.253906 10.402344 4.773438 14.269531 3.519531 3.863281 8.535156 6.078125 13.761718 6.078125h60.921875c5.222657 0 10.242188-2.214844 13.761719-6.078125 3.519531-3.867187 5.257812-9.066406 4.773438-14.269531l-5.769532-61.777344h47.207032c4.140624 0 7.5-3.359375 7.5-7.5 0-4.144531-3.359376-7.5-7.5-7.5h-267.007813v-73.199218c0-3.390626 2.757813-6.152344 6.148437-6.152344h340.851563c3.390625 0 6.148437 2.761718 6.148437 6.152344v73.199218h-51.242187c-4.140625 0-7.496094 3.355469-7.496094 7.5 0 4.140625 3.355469 7.5 7.496094 7.5h53.152344l37.234375 124.824219h-431.4375zm144.421875 63.171875 5.898437-63.175781h56.328125l5.898438 63.175781c.128906 1.382813-.523438 2.332031-.925782 2.773438-.402343.441406-1.285156 1.183593-2.675781 1.183593h-60.917969c-1.390624 0-2.273437-.742187-2.675781-1.183593-.402343-.441407-1.058593-1.390625-.929687-2.773438zm252.34375 304.871094c0 10.8125-8.800782 19.613281-19.613282 19.613281h-397.335937c-10.8125 0-19.613281-8.800781-19.613281-19.613281v-228.222656h436.5625zm0 0"/></svg>