<svg viewBox="-34 1 511 511.999" xmlns="http://www.w3.org/2000/svg"><path d="m181.132812 195.273438-27.273437-87.882813c-3.1875-10.269531-4.972656-20.925781-5.308594-31.671875l-1.253906-40.339844h-53.742187l-1.253907 40.339844c-.335937 10.75-2.121093 21.402344-5.308593 31.671875l-27.273438 87.882813c-1.042969 3.367187-1.574219 6.875-1.574219 10.402343v86.691407c0 1.105468.050781 2.214843.15625 3.316406l10.320313 108.726562c.378906 4 .058594 8.03125-.945313 11.921875l-10.25 39.621094c-2.753906 14.320313 8.21875 27.601563 22.796875 27.601563h80.40625c14.582032 0 25.550782-13.28125 22.796875-27.601563l-10.25-39.621094c-1.003906-3.890625-1.324219-7.921875-.945312-11.921875l10.320312-108.726562c.105469-1.101563.15625-2.210938.15625-3.316406v-86.691407c.003907-3.527343-.53125-7.035156-1.574219-10.402343zm0 0" fill="#dfede7"/><path d="m183.425781 455.957031-10.246093-39.625c-1.007813-3.886719-1.328126-7.921875-.945313-11.921875l10.316406-108.726562c.105469-1.101563.160157-2.207032.160157-3.316406v-86.691407c0-3.527343-.535157-7.03125-1.578126-10.402343l-27.273437-87.882813c-3.1875-10.269531-4.972656-20.921875-5.308594-31.671875l-1.253906-40.335938h-53.742187l-1.253907 40.335938c-.132812 4.191406-.488281 8.371094-1.058593 12.515625.890624 6.484375 2.304687 12.894531 4.25 19.15625l27.273437 87.882813c1.042969 3.371093 1.574219 6.875 1.574219 10.402343v86.691407c0 1.109374-.050782 2.214843-.15625 3.316406l-10.320313 108.726562c-.378906 4-.058593 8.035156.945313 11.921875l10.25 39.625c2.753906 14.316407-8.21875 27.601563-22.796875 27.601563h58.367187c14.582032 0 25.550782-13.285156 22.796875-27.601563zm0 0" fill="#d7e0dc"/><path d="m181.132812 195.273438-27.273437-87.882813c-1.476563-4.75-2.636719-9.585937-3.503906-14.476563h-59.855469c-.871094 4.890626-2.03125 9.726563-3.507812 14.476563l-27.273438 87.882813c-1.042969 3.367187-1.574219 6.875-1.574219 10.402343v86.691407c0 1.105468.050781 2.214843.15625 3.316406l10.320313 108.726562c.378906 4 .058594 8.03125-.945313 11.917969l-5.507812 21.296875c4.339843 5.152344 10.90625 8.859375 18.054687 8.859375h80.40625c7.414063 0 13.882813-3.441406 18.101563-8.699219l-5.550781-21.457031c-1.003907-3.886719-1.324219-7.921875-.945313-11.917969l10.320313-108.726562c.105468-1.101563.15625-2.210938.15625-3.316406v-86.691407c0-3.527343-.535157-7.035156-1.578126-10.402343zm0 0" fill="#912c2c"/><path d="m182.34375 200.683594c-.261719-1.832032-.660156-3.640625-1.210938-5.410156l-18.183593-58.589844-9.089844-29.292969c-.007813-.027344-.015625-.054687-.023437-.085937-.367188-1.183594-.714844-2.375-1.042969-3.570313-.269531-.980469-.519531-1.964844-.761719-2.953125-.054688-.210938-.113281-.417969-.164062-.628906-.582032-2.394532-1.082032-4.8125-1.511719-7.238282h-58.371094c.863281 4.886719 2.03125 9.722657 3.507813 14.476563l27.273437 87.882813c1.042969 3.367187 1.578125 6.875 1.578125 10.402343v86.691407c0 1.105468-.054688 2.210937-.160156 3.316406l-10.316406 108.726562c-.378907 3.996094-.0625 8.03125.945312 11.917969l7.796875 30.15625h38.019531c7.414063 0 13.882813-3.441406 18.097656-8.699219l-5.546874-21.457031c-.226563-.878906-.414063-1.765625-.570313-2.65625-.191406-1.082031-.335937-2.167969-.421875-3.261719-.039062-.5-.066406-.996094-.085938-1.496094-.054687-1.5-.011718-3.003906.132813-4.503906l10.320313-108.726562c.105468-1.105469.15625-2.210938.15625-3.316406v-86.691407c0-1.671875-.128907-3.339843-.367188-4.992187zm0 0" fill="#7c1e1e"/><path d="m147.515625 48.332031h-54.179687c-5.90625 0-10.695313-4.789062-10.695313-10.695312v-19.332031c0-5.90625 4.789063-10.695313 10.695313-10.695313h54.179687c5.910156 0 10.699219 4.789063 10.699219 10.695313v19.332031c0 5.90625-4.789063 10.695312-10.699219 10.695312zm0 0" fill="#fc4e51"/><path d="m58.144531 205.675781v86.691407c0 1.105468.050781 2.214843.15625 3.316406l.835938 8.808594h122.578125l.835937-8.808594c.105469-1.101563.160157-2.210938.160157-3.316406v-86.691407c0-1.898437-.167969-3.789062-.472657-5.65625h-123.621093c-.308594 1.867188-.472657 3.757813-.472657 5.65625zm0 0" fill="#fc4e51"/><path d="m182.550781 295.683594c.105469-1.101563.160157-2.207032.160157-3.316406v-86.691407c0-.761719-.035157-1.519531-.085938-2.277343-.007812-.121094-.015625-.238282-.023438-.359376-.054687-.691406-.132812-1.382812-.226562-2.070312-.027344-.179688-.050781-.363281-.078125-.542969-.019531-.136719-.054687-.269531-.074219-.40625h-58.351562c.304687 1.871094.46875 3.757813.46875 5.65625v86.691407c0 1.109374-.050782 2.214843-.15625 3.316406l-.835938 8.8125h58.367188zm0 0" fill="#ea3942"/><path d="m377.898438 196.011719h-140.71875c-2.15625 0-4.101563 1.296875-4.917969 3.296875-3.804688 9.351562-11.265625 40.085937 11.167969 110.957031 20.851562 65.882813 13.394531 129.992187 8.28125 158.246094-1.421876 7.839843 4.609374 15.046875 12.578124 15.046875h86.503907c7.964843 0 13.996093-7.207032 12.578125-15.046875-5.117188-28.253907-12.574219-92.363281 8.28125-158.246094 22.433594-70.871094 14.96875-101.605469 11.164062-110.957031-.8125-2-2.761718-3.296875-4.917968-3.296875zm0 0" fill="#912c2c"/><path d="m382.816406 199.308594c-.8125-2-2.761718-3.296875-4.917968-3.296875h-55.304688s18.410156 26.023437-9.519531 114.253906c-27.929688 88.234375-5.078125 173.292969-5.078125 173.292969h42.792968c7.96875 0 14-7.207032 12.582032-15.046875-5.117188-28.253907-12.574219-92.363281 8.277344-158.242188 22.4375-70.875 14.972656-101.609375 11.167968-110.960937zm0 0" fill="#7c1e1e"/><path d="m359.910156 444.355469c-2.300781 2.347656-5.507812 3.835937-9.121094 3.835937h-86.5c-3.613281 0-6.820312-1.488281-9.121093-3.835937-1.039063 9.605469-2.308594 17.796875-3.460938 24.15625-1.417969 7.839843 4.613281 15.042969 12.582031 15.042969h86.5c7.96875 0 14-7.203126 12.582032-15.042969-1.152344-6.359375-2.421875-14.550781-3.460938-24.15625zm0 0" fill="#dfede7"/><path d="m362.914062 465.921875c-.070312-.398437-.140624-.820313-.207031-1.234375-.085937-.496094-.167969-.984375-.25-1.496094-.09375-.558594-.183593-1.136718-.277343-1.714844-.058594-.386718-.121094-.761718-.179688-1.15625-.101562-.671874-.207031-1.367187-.308594-2.066406-.046875-.3125-.09375-.621094-.140625-.941406-.113281-.769531-.222656-1.558594-.335937-2.359375-.035156-.257813-.070313-.515625-.105469-.777344-.117187-.863281-.234375-1.742187-.347656-2.640625-.027344-.199218-.050781-.398437-.078125-.601562-.121094-.960938-.242188-1.933594-.359375-2.929688-.015625-.128906-.03125-.261718-.042969-.390625-.125-1.066406-.25-2.148437-.371094-3.257812-2.300781 2.347656-5.507812 3.835937-9.117187 3.835937h-49.023438c2.597657 21.839844 6.226563 35.367188 6.226563 35.367188h42.796875c7.964843 0 13.996093-7.207032 12.578125-15.046875-.152344-.832031-.304688-1.699219-.457032-2.589844zm0 0" fill="#d7e0dc"/><path d="m237.179688 196.011719c-2.15625 0-4.101563 1.296875-4.917969 3.296875-1.574219 3.871094-3.777344 11.417968-4.222657 23.953125h159c-.445312-12.535157-2.648437-20.082031-4.222656-23.953125-.8125-2-2.761718-3.296875-4.917968-3.296875zm0 0" fill="#dfede7"/><path d="m387.039062 223.261719c-.25-7.046875-1.054687-12.519531-1.992187-16.644531 0-.003907-.003906-.011719-.003906-.019532-.207031-.902344-.417969-1.738281-.628907-2.515625-.003906-.015625-.007812-.03125-.015624-.046875-.101563-.371094-.207032-.730468-.308594-1.074218-.007813-.03125-.019532-.0625-.027344-.09375-.203125-.675782-.410156-1.300782-.609375-1.871094-.011719-.03125-.023437-.066406-.035156-.101563-.09375-.269531-.191407-.527343-.28125-.773437-.015625-.035156-.027344-.074219-.042969-.109375-.09375-.246094-.1875-.484375-.277344-.703125-.507812-1.25-1.457031-2.226563-2.625-2.78125-.703125-.335938-1.484375-.515625-2.292968-.515625h-55.300782s5.15625 7.296875 5.871094 27.25zm0 0" fill="#d7e0dc"/><path d="m425.441406 476.390625h-406.757812c-5.839844 0-10.574219 4.734375-10.574219 10.574219v6.851562c0 5.839844 4.734375 10.578125 10.574219 10.578125h406.757812c5.84375 0 10.578125-4.738281 10.578125-10.578125v-6.851562c-.003906-5.839844-4.738281-10.574219-10.578125-10.574219zm0 0" fill="#a0796d"/><path d="m425.441406 468.78125h-54.359375c-.050781-.542969-.128906-1.082031-.226562-1.625-4.472657-24.707031-12.644531-89.222656 8.046875-154.59375 9.886718-31.226562 15.191406-58.359375 15.777344-80.648438.082031-3.175781.058593-6.121093-.035157-8.875 0-.015624 0-.03125 0-.050781 0-.042969-.003906-.082031-.007812-.125-.019531-.632812-.050781-1.25-.082031-1.863281-.011719-.230469-.023438-.464844-.039063-.691406-.035156-.644532-.074219-1.277344-.121094-1.898438-.011719-.148437-.023437-.300781-.035156-.445312-.570313-7.390625-1.730469-13.035156-2.992187-17.226563-.007813-.019531-.015626-.039062-.019532-.058593-.089844-.300782-.183594-.59375-.273437-.878907-.058594-.175781-.113281-.347656-.167969-.515625-.074219-.21875-.144531-.433594-.21875-.648437-.082031-.238281-.164062-.464844-.246094-.691407-.054687-.144531-.109375-.292968-.160156-.4375-.140625-.371093-.28125-.730468-.417969-1.066406-.089843-.222656-.191406-.441406-.292969-.65625-.039062-.078125-.070312-.160156-.109374-.238281-.039063-.082031-.085938-.15625-.128907-.238281-2.0625-3.941406-5.988281-6.535156-10.449219-6.867188-.105468-.007812-.214843-.007812-.324218-.011718-.21875-.011719-.4375-.027344-.65625-.027344h-140.722656c-1.976563 0-3.875.445312-5.582032 1.257812-2.839844 1.351563-5.136718 3.730469-6.382812 6.78125-.015625.039063-.03125.085938-.046875.125-.117188.289063-.234375.59375-.355469.910156-.066406.179688-.136719.371094-.203125.5625-.066406.175782-.132813.355469-.195313.542969-.089843.25-.175781.511719-.265624.777344-.035157.109375-.070313.21875-.105469.332031-1.394531 4.300782-2.714844 10.285156-3.328125 18.347656-.007813.101563-.015625.203126-.023438.304688-.050781.65625-.09375 1.328125-.132812 2.011719-.007813.183593-.019532.371093-.027344.558593-.035156.652344-.066406 1.304688-.089844 1.980469 0 .03125-.003906.0625-.003906.097657v.039062c-.097656 2.753906-.117188 5.703125-.035156 8.886719.582031 22.285156 5.890625 49.417969 15.773437 80.644531 20.695313 65.371094 12.523438 129.890625 8.050781 154.59375-.097656.542969-.175781 1.085938-.230468 1.625h-53.738282c1.308594-4.582031 1.566407-9.464844.640626-14.261719-.03125-.15625-.0625-.3125-.105469-.46875l-10.246094-39.621093c-.785156-3.042969-1.035156-6.171876-.738281-9.296876l9.476562-99.84375c0-.011718 0-.023437.003906-.035156l.835938-8.847656c.128906-1.335938.195312-2.695312.195312-4.039062v-86.691407c0-4.292969-.648437-8.550781-1.921874-12.65625l-27.273438-87.882812c-.347656-1.121094-.675781-2.25-.988281-3.382813-.261719-.953125-.503907-1.914062-.742188-2.882812-.039062-.148438-.078125-.296875-.117187-.445313-.542969-2.253906-1.023438-4.535156-1.433594-6.839843 0-.003907 0-.011719 0-.015626-.945312-5.308593-1.515625-10.683593-1.683594-16.085937l-.667968-21.398437c6.105468-2.972657 10.332031-9.21875 10.332031-16.449219v-19.332031c-.003907-10.09375-8.214844-18.304688-18.308594-18.304688h-54.179687c-10.09375 0-18.300782 8.210938-18.300782 18.304688v19.332031c0 7.230469 4.222656 13.476562 10.328125 16.449219l-.664062 21.394531c-.167969 5.410156-.742188 10.792969-1.691407 16.113281-.410156 2.300781-.886718 4.582031-1.429687 6.828125-.039063.152344-.078125.300781-.117187.453125-.238282.964844-.484376 1.929688-.746094 2.882812-.296875 1.070313-.605469 2.136719-.933594 3.199219-.019531.058594-.035156.121094-.050781.179688 0 0 0 0-.003907.003906l-7.015624 22.613281c-1.246094 4.011719 1 8.273438 5.011718 9.519532 4.015625 1.242187 8.273438-1 9.519532-5.011719l7.019531-22.617188c.453125-1.46875.878906-2.949219 1.28125-4.433593.042969-.15625.082031-.316407.121093-.476563.367188-1.371094.710938-2.746094 1.03125-4.128906.003907-.027344.011719-.054688.019532-.082031h47.429687c.003907.015624.007813.03125.011719.050781.324219 1.410156.675781 2.816406 1.046875 4.214843.039063.136719.070313.273438.105469.410157.402344 1.488281.828125 2.972656 1.285156 4.445312l25.6875 82.765625h-103.707031l8.171875-26.339844c1.246094-4.011718-.996094-8.273437-5.007813-9.519531-4.015625-1.246093-8.277343 1-9.523437 5.011719l-9.761719 31.457031c-1.273437 4.101563-1.917969 8.359375-1.917969 12.65625v86.691407c0 1.34375.0625 2.699218.191406 4.035156l.839844 8.863281c0 .003906.003906.007813.003906.011719l9.476563 99.851562c.296875 3.125.046875 6.253906-.738281 9.296875l-10.25 39.625c-.039063.152344-.074219.308594-.105469.464844-.921875 4.796875-.664063 9.679687.644531 14.265625h-31.914062c-10.027344 0-18.183594 8.15625-18.183594 18.183594v6.851562c0 10.023438 8.15625 18.183594 18.183594 18.183594h406.757812c10.027344 0 18.183594-8.15625 18.183594-18.183594v-6.851562c0-10.027344-8.15625-18.183594-18.183594-18.183594zm-326.1875-383.472656c.328125-3.109375.550782-6.226563.648438-9.355469l.625-20.015625h39.800781l.621094 20.015625c.097656 3.128906.320312 6.246094.648437 9.355469zm51.351563-47.671875c0 1.671875-1.339844 3.035156-3.003907 3.078125-.007812 0-.015624 0-.023437 0-.085937.003906-.175781.003906-.261719.007812h-53.792968c-.097657-.003906-.171876-.003906-.25-.003906-1.671876-.035156-3.027344-1.402344-3.027344-3.082031v-19.332031c0-1.703126 1.386718-3.089844 3.089844-3.089844h54.179687c1.703125 0 3.089844 1.382812 3.089844 3.089844zm84.996093 193.234375h18.722657c4.203125 0 7.605469-3.40625 7.605469-7.609375 0-4.199219-3.40625-7.605469-7.605469-7.605469h-18.09375c.023437-.207031.046875-.417969.074219-.621094.039062-.316406.078124-.632812.121093-.941406.042969-.328125.089844-.652344.136719-.96875.046875-.3125.09375-.617188.144531-.917969.046875-.289062.09375-.578125.140625-.855469.054688-.300781.109375-.59375.164063-.878906.046875-.253906.09375-.507812.144531-.75.058594-.292968.117188-.570312.175781-.84375.046875-.21875.09375-.441406.140625-.652344.066406-.277343.128906-.539062.195313-.800781.042969-.183593.089843-.375.132812-.550781.070313-.269531.136719-.515625.207031-.765625.039063-.152344.082032-.308594.125-.453125.074219-.265625.148438-.511719.222657-.753906.035156-.109375.066406-.226563.101562-.332032.105469-.339843.210938-.65625.3125-.953124h137.542969c.101562.292968.207031.609374.3125.945312.046875.148438.09375.320312.144531.476562.058594.195313.117188.386719.175781.59375.054688.191407.109376.40625.167969.609376.050781.199218.105469.390624.160157.601562.058593.222656.117187.464844.175781.707031.050781.207031.101562.414063.148437.632813.0625.257812.121094.535156.179688.804687.046875.222657.09375.445313.140625.675781.058593.292969.117187.597657.171875.90625.046875.234376.089844.472657.132812.714844.058594.328125.113282.667969.167969 1.011719.039063.246094.078125.496094.117187.753906.054688.363281.109376.738281.160157 1.121094.035156.253906.066406.511719.097656.773437.03125.230469.058594.472657.085937.710938h-89.128906c-4.203125 0-7.609375 3.40625-7.609375 7.605469 0 4.203125 3.40625 7.609375 7.609375 7.609375h89.753906c-.359374 16.839844-3.867187 41.691406-15.078124 77.101562-15.722657 49.667969-15.90625 97.949219-12.5625 132.496094-.324219.066406-.667969.113281-1.042969.113281h-86.503907c-.375 0-.71875-.046875-1.039062-.113281 3.339844-34.546875 3.15625-82.828125-12.566406-132.496094-11.210938-35.410156-14.71875-60.261718-15.082032-77.101562zm120.089844 237.910156h-96.304687c.703125-3.960938 1.414062-8.375 2.082031-13.199219.929688.128907 1.863281.214844 2.820312.214844h86.5c.957032 0 1.894532-.085937 2.820313-.214844.671875 4.824219 1.378906 9.238281 2.082031 13.199219zm-289.941406-261.152344h109.351562v84.738282c0 .863281-.042968 1.738281-.125 2.597656l-.179687 1.921875h-108.742187l-.179688-1.921875c-.082031-.859375-.125-1.734375-.125-2.597656zm100.066406 210.605469 4.46875 17.289063c-2.726562 2.15625-6.101562 3.351562-9.65625 3.351562h-80.40625c-3.320312 0-6.726562-1.300781-9.59375-3.578125l4.410156-17.0625c1.230469-4.761719 1.621094-9.652344 1.15625-14.542969l-8.695312-91.589844h105.851562l-8.691406 91.589844c-.464844 4.890625-.078125 9.785156 1.15625 14.542969zm-100.957031 39.371094 1.78125-6.898438c4.269531 2.183594 8.933594 3.382813 13.582031 3.382813h80.40625c4.8125 0 9.457032-1.109375 13.636719-3.175782l1.730469 6.691407c.707031 3.957031-.128906 7.886719-2.269532 11.175781h-106.601562c-2.140625-3.289062-2.972656-7.214844-2.265625-11.175781zm363.550781 36.210937c0 1.636719-1.332031 2.96875-2.96875 2.96875h-406.757812c-1.636719 0-2.96875-1.332031-2.96875-2.96875v-6.851562c0-1.636719 1.332031-2.96875 2.96875-2.96875h406.757812c1.636719 0 2.96875 1.332031 2.96875 2.96875zm0 0"/></svg>