<svg viewBox="-17 0 512 512.00041" xmlns="http://www.w3.org/2000/svg"><path d="m380.320312 504.410156h-333.367187c-17.785156 0-33.554687-11.433594-39.085937-28.335937-1.199219-3.660157 1.527343-7.421875 5.378906-7.421875h400.777344c3.855468 0 6.582031 3.761718 5.382812 7.421875-5.53125 16.902343-21.300781 28.335937-39.085938 28.335937zm0 0" fill="#87a4f4"/><path d="m414.023438 468.652344h-50.875l-3.707032 11.324218c-4.769531 14.574219-18.367187 24.433594-33.703125 24.433594h54.582031c17.785157 0 33.554688-11.433594 39.085938-28.335937 1.199219-3.660157-1.527344-7.421875-5.382812-7.421875zm0 0" fill="#6b97d6"/><path d="m469.046875 273.265625c-2.773437-15.355469-9.480469-28.21875-19.398437-37.195313-11.144532-10.085937-25.789063-14.820312-42.359376-13.695312-35.914062 2.4375-59.398437 21.320312-70.6875 38.800781l-7.542968 68.015625c1.265625 1.527344 1.347656-9.035156 17.734375-35.363281 9.972656-16.027344 29.375-40.609375 62.515625-41.769531 21-.734375 28.132812 13.621094 30.457031 26.492187 3.03125 16.8125-1.203125 37.273438-11.332031 54.738281-8.25 14.222657-24.078125 32.960938-52.636719 41.460938-22.160156 6.59375-39.882813 13.542969-54.050781 20.40625l-4 36.078125c13.386718-8.375 34.277344-18.367187 66.539062-27.96875 63.4375-18.878906 93.390625-82.175781 84.761719-130zm0 0" fill="#d8d6d4"/><path d="m297.300781 471.367188h-170.972656c-17.183594 0-31.667969-12.832032-33.734375-29.894532l-32.667969-269.5c-.265625-2.167968 1.425781-4.074218 3.609375-4.074218h296.558594c2.179688 0 3.871094 1.90625 3.609375 4.074218l-32.667969 269.5c-2.070312 17.0625-16.550781 29.894532-33.734375 29.894532zm0 0" fill="#e2e2e2"/><path d="m360.09375 167.898438h-55.601562l-33.164063 273.574218c-2.066406 17.0625-16.546875 29.890625-33.734375 29.890625h59.703125c17.1875 0 31.667969-12.832031 33.738281-29.890625l32.667969-269.5c.261719-2.167968-1.429687-4.074218-3.609375-4.074218zm0 0" fill="#d8d6d4"/><path d="m132.351562 120.34375c-2 7.414062-6.296874 12.246094-6.308593 12.257812-2.847657 3.074219-2.660157 7.875.414062 10.722657 1.457031 1.351562 3.308594 2.019531 5.152344 2.019531 2.039063 0 4.074219-.816406 5.570313-2.429688 8.773437-9.476562 20.15625-34.1875.457031-59.910156-6.0625-7.914062-8.738281-15.113281-7.730469-20.8125.40625-2.308594 1.367188-4.160156 2.386719-5.558594 1.765625-2.429687 1.808593-5.714843.25-8.28125l-.046875-.078124c-2.773438-4.566407-9.320313-4.898438-12.472656-.582032-2.117188 2.898438-4.078126 6.691406-4.988282 11.445313-1.964844 10.253906 1.585938 21.390625 10.554688 33.097656 7.035156 9.1875 9.308594 18.644531 6.761718 28.109375zm0 0"/><path d="m292.921875 120.34375c-2 7.414062-6.300781 12.246094-6.308594 12.257812-2.847656 3.074219-2.664062 7.875.414063 10.722657 1.457031 1.351562 3.308594 2.019531 5.152344 2.019531 2.039062 0 4.074218-.816406 5.570312-2.429688 8.773438-9.476562 20.15625-34.1875.457031-59.910156-6.0625-7.914062-8.738281-15.113281-7.730469-20.8125.417969-2.371094 1.421876-4.265625 2.472657-5.675781 1.734375-2.332031 2.035156-5.425781.703125-8.007813l-.058594-.109374c-2.542969-4.929688-9.335938-5.484376-12.699219-1.074219-2.265625 2.976562-4.34375 6.875-5.289062 11.8125-1.964844 10.253906 1.585937 21.390625 10.550781 33.097656 7.039062 9.1875 9.3125 18.644531 6.765625 28.109375zm0 0"/><path d="m212.636719 74.925781c-2 7.414063-6.296875 12.246094-6.308594 12.257813-2.847656 3.074218-2.664063 7.875.414063 10.722656 1.457031 1.351562 3.308593 2.019531 5.152343 2.019531 2.039063 0 4.074219-.816406 5.570313-2.429687 8.773437-9.476563 20.15625-34.1875.457031-59.90625-6.0625-7.917969-8.738281-15.113282-7.730469-20.816406.40625-2.304688 1.195313-4.023438 2.007813-5.265626 1.421875-2.171874 1.507812-4.964843.355469-7.296874-2.546876-5.167969-9.765626-5.707032-12.964844-.914063-1.832032 2.75-3.460938 6.207031-4.269532 10.421875-1.964843 10.253906 1.585938 21.390625 10.550782 33.097656 7.039062 9.1875 9.3125 18.644532 6.765625 28.109375zm0 0"/><path d="m340.351562 427.664062c13.074219-6.148437 28.550782-11.902343 46.097657-17.121093 67.460937-20.078125 99.277343-87.585938 90.066406-138.625-3.074219-17.023438-10.601563-31.363281-21.777344-41.476563-12.707031-11.5-29.285156-16.90625-47.960937-15.640625-15.144532 1.03125-29.402344 4.96875-42.015625 11.503907l6.472656-53.417969c.386719-3.1875-.609375-6.394531-2.738281-8.796875s-5.191406-3.78125-8.402344-3.78125h-59.433594c-4.1875 0-7.585937 3.398437-7.585937 7.589844 0 4.191406 3.398437 7.589843 7.585937 7.589843h54.972656l-32.132812 265.070313c-1.074219 8.851562-6.597656 16.582031-14.550781 20.503906h-194.273438c-7.953125-3.921875-13.476562-11.652344-14.546875-20.503906l-5.527344-45.582032c-.503906-4.164062-4.285156-7.125-8.445312-6.621093-4.164062.503906-7.125 4.285156-6.621094 8.449219l5.523438 45.582031c.828125 6.816406 3.347656 13.199219 7.152344 18.675781h-78.964844c-4.230469 0-8.242188 2.046875-10.726563 5.476562-2.4843748 3.425782-3.183593 7.875-1.867187 11.898438 6.570312 20.074219 25.175781 33.5625 46.300781 33.5625h333.367187c21.121094 0 39.730469-13.488281 46.296876-33.566406 1.316406-4.023438.621093-8.46875-1.863282-11.898438-2.488281-3.425781-6.496094-5.472656-10.730468-5.472656h-82.605469c3.804687-5.476562 6.324219-11.859375 7.148437-18.675781zm16.382813-135.148437c14.597656-21.09375 32.367187-32.152344 52.839844-32.871094 8.128906-.28125 19.339843 1.503907 22.722656 20.253907 2.722656 15.09375-1.175781 33.632812-10.425781 49.582031-7.558594 13.035156-22.066406 30.207031-48.238282 37.996093-9.5 2.828126-18.554687 5.839844-27.074218 8.988282zm-12.242187 100.980469c10.257812-4.054688 21.492187-7.910156 33.472656-11.472656 30.945312-9.210938 48.09375-29.515626 57.035156-44.925782 11.003906-18.972656 15.578125-41.363281 12.234375-59.894531-3.941406-21.828125-17.503906-33.449219-38.191406-32.726563-18.347657.644532-34.757813 7.675782-49.023438 20.941407l2.429688-20.027344c12.773437-8.964844 28.386719-14.292969 45.355469-15.445313 14.460937-.988281 27.171874 3.082032 36.75 11.75 8.667968 7.84375 14.554687 19.226563 17.023437 32.921876 8.050781 44.605468-20.039063 103.695312-79.457031 121.378906-14.597656 4.34375-27.867188 9.0625-39.636719 14.085937zm66.765624 82.746094c-5.1875 12.414062-17.300781 20.582031-30.9375 20.582031h-333.367187c-13.636719 0-25.753906-8.167969-30.9375-20.582031zm0 0"/><path d="m75.253906 361.46875c.464844 3.851562 3.738282 6.675781 7.523438 6.675781.300781 0 .613281-.015625.921875-.054687 4.160156-.503906 7.125-4.285156 6.617187-8.445313l-22.320312-184.15625h197.355468c4.191407 0 7.589844-3.398437 7.589844-7.589843 0-4.191407-3.398437-7.589844-7.589844-7.589844h-201.816406c-3.210937 0-6.273437 1.378906-8.402344 3.78125-2.128906 2.402344-3.128906 5.609375-2.742187 8.792968zm0 0"/></svg>