<svg viewBox="0 0 512 512" xmlns="http://www.w3.org/2000/svg"><path d="m410.855469 472.75h-309.710938l-37.144531-319.230469h384zm0 0" fill="#6d7275"/><path d="m390 153.519531-37.144531 319.230469h58l37.144531-319.230469zm0 0" fill="#606568"/><path d="m300.378906 207.855469h90.609375v27.5h-90.609375zm0 0" fill="#d8d6d4"/><path d="m468.460938 504.167969h-424.921876c-19.902343 0-36.039062-16.136719-36.039062-36.039063 0-9.050781 7.335938-16.386718 16.386719-16.386718h464.226562c9.050781 0 16.386719 7.335937 16.386719 16.386718 0 19.902344-16.136719 36.039063-36.039062 36.039063zm0 0" fill="#464c50"/><path d="m488.113281 451.742188h-41.667969v21.375c0 17.148437-13.898437 31.050781-31.050781 31.050781h53.066407c19.902343 0 36.039062-16.136719 36.039062-36.039063 0-9.050781-7.335938-16.386718-16.386719-16.386718zm0 0" fill="#31363b"/><g fill="#e2e2e2"><path d="m232.878906 283.1875h-5.417968c-6.328126 0-11.460938-5.128906-11.460938-11.460938v-36.207031h28.339844v36.207031c0 6.328126-5.128906 11.460938-11.460938 11.460938zm0 0"/><path d="m284.539062 283.1875h-5.417968c-6.332032 0-11.460938-5.128906-11.460938-11.460938v-36.207031h28.339844v36.207031c0 6.328126-5.132812 11.460938-11.460938 11.460938zm0 0"/><path d="m289.144531 252.992188h-66.289062c-20.171875 0-36.523438-16.351563-36.523438-36.523438v-65.613281h139.332031v65.613281c.003907 20.171875-16.347656 36.523438-36.519531 36.523438zm0 0"/></g><path d="m268 150.855469v65.613281c0 20.171875-16.351562 36.523438-36.523438 36.523438h57.667969c20.171875 0 36.523438-16.351563 36.523438-36.523438v-65.613281zm0 0" fill="#c9c9c9"/><path d="m470.472656 178.355469h-428.945312c-18.792969 0-34.027344-15.238281-34.027344-34.03125v-102.796875c0-18.792969 15.234375-34.027344 34.027344-34.027344h428.945312c18.792969 0 34.027344 15.234375 34.027344 34.027344v102.800781c0 18.792969-15.234375 34.027344-34.027344 34.027344zm0 0" fill="#464c50"/><path d="m470.472656 7.5h-45.429687c11.820312 0 21.402343 9.582031 21.402343 21.402344v128.050781c0 11.820313-9.582031 21.402344-21.402343 21.402344h45.429687c18.792969 0 34.027344-15.238281 34.027344-34.03125v-102.796875c0-18.792969-15.234375-34.027344-34.027344-34.027344zm0 0" fill="#31363b"/><path d="m496.433594 242.894531h-124.164063c-4.457031 0-8.070312-3.613281-8.070312-8.070312v-26.441407c0-4.457031 3.613281-8.070312 8.070312-8.070312h124.164063c4.453125 0 8.066406 3.613281 8.066406 8.070312v26.441407c0 4.457031-3.613281 8.070312-8.066406 8.070312zm0 0" fill="#d87e35"/><path d="m168.570312 330.6875c-.691406 20.949219.082032 99.304688 54.894532 121.054688h65.070312c54.8125-21.75 55.589844-100.105469 54.894532-121.054688-.046876-1.476562-1.257813-2.648438-2.734376-2.648438h-169.390624c-1.476563 0-2.6875 1.171876-2.734376 2.648438zm0 0" fill="#dfede7"/><path d="m343.429688 330.6875c-.046876-1.476562-1.257813-2.648438-2.734376-2.648438h-57.667968c1.476562 0 2.6875 1.171876 2.734375 2.648438.695312 20.949219-.082031 99.304688-54.894531 121.054688h57.667968c54.8125-21.75 55.589844-100.105469 54.894532-121.054688zm0 0" fill="#d7e0dc"/><path d="m306.613281 418.261719c-8.820312 2.832031-18.539062 4.1875-28.324219 4.1875h-44.527343c-10.402344 0-20.710938-1.558594-29.976563-4.714844-11.484375-3.917969-19.273437-9.113281-24.554687-14.585937 7.871093 20.535156 21.335937 39.503906 44.238281 48.59375h65.066406c22.898438-9.089844 36.363282-28.054688 44.234375-48.589844-5.523437 5.726562-13.789062 11.144531-26.15625 15.109375zm0 0" fill="#cdd3d1"/><path d="m306.613281 418.261719c-8.820312 2.832031-18.539062 4.1875-28.324219 4.1875h-12.796874c-8.039063 12.554687-19.191407 23.167969-34.625 29.292969h57.667968c.792969-.316407 1.574219-.644532 2.347656-.984376.246094-.109374.488282-.222656.730469-.332031.527344-.238281 1.046875-.476562 1.5625-.726562.277344-.132813.554688-.269531.828125-.410157.476563-.234374.949219-.476562 1.417969-.726562.273437-.144531.546875-.289062.816406-.433594.480469-.265625.957031-.535156 1.429688-.808594.234375-.132812.476562-.265624.707031-.40625.628906-.371093 1.246094-.75 1.859375-1.140624.066406-.042969.136719-.082032.203125-.125.671875-.429688 1.328125-.871094 1.976562-1.320313.226563-.152344.445313-.3125.664063-.472656.429687-.300781.851563-.605469 1.269531-.914063.253906-.191406.507813-.382812.757813-.574218.378906-.289063.753906-.585938 1.128906-.882813.253906-.199219.503906-.402344.753906-.605469.371094-.308594.738281-.617187 1.101563-.929687.234375-.199219.46875-.394531.699218-.597657.429688-.375.847657-.753906 1.261719-1.136718.179688-.167969.363281-.332032.542969-.5.519531-.488282 1.027344-.980469 1.53125-1.480469.230469-.230469.457031-.464844.683594-.699219.308594-.316406.621094-.632812.921875-.957031.25-.261719.492187-.527344.734375-.792969.273437-.296875.546875-.597656.816406-.898437.25-.28125.496094-.5625.738281-.847657.257813-.292968.507813-.59375.757813-.890624.246094-.292969.488281-.582032.730468-.875.246094-.304688.484376-.613282.726563-.917969.441406-.554688.871094-1.121094 1.296875-1.6875.214844-.289063.433594-.574219.648438-.863281.253906-.351563.5-.703126.75-1.058594.183593-.261719.371093-.523438.554687-.789063.25-.363281.496094-.730469.742187-1.101562.167969-.253907.339844-.507813.503907-.761719.25-.378906.496093-.765625.738281-1.148438.148438-.238281.296875-.476562.445312-.714843.25-.410157.503907-.816407.746094-1.226563.105469-.167968.203125-.34375.304688-.515625.90625-1.539062 1.769531-3.101562 2.589844-4.6875.074218-.136719.144531-.277343.21875-.414062.246093-.488281.492187-.976563.734374-1.464844.082032-.171875.167969-.34375.25-.515625.242188-.492188.476563-.984375.710938-1.480469.066406-.144531.132812-.292969.203125-.441406.246094-.53125.488281-1.0625.726563-1.601563.007812-.011718.011718-.023437.015624-.035156.835938-1.878906 1.617188-3.78125 2.351563-5.695312-5.519531 5.722656-13.785156 11.140625-26.152344 15.109375zm0 0" fill="#c9c9c9"/><path d="m303.074219 92.925781c0 26-21.078125 47.074219-47.074219 47.074219s-47.074219-21.074219-47.074219-47.074219c0-25.996093 21.078125-47.070312 47.074219-47.070312s47.074219 21.074219 47.074219 47.070312zm0 0" fill="#fccf3f"/><path d="m256 45.855469c-3.589844 0-7.082031.414062-10.441406 1.175781v91.792969c3.359375.761719 6.851562 1.175781 10.441406 1.175781 25.996094 0 47.074219-21.074219 47.074219-47.070312 0-26-21.078125-47.074219-47.074219-47.074219zm0 0" fill="#efa335"/><path d="m159.355469 120.261719h-106.441407c-5.242187 0-9.488281-4.25-9.488281-9.492188v-35.683593c0-5.242188 4.246094-9.492188 9.488281-9.492188h106.441407c5.242187 0 9.492187 4.25 9.492187 9.492188v35.683593c-.003906 5.242188-4.25 9.492188-9.492187 9.492188zm0 0" fill="#33d8dd"/><path d="m159.355469 65.59375h-48.175781v54.667969h48.175781c5.242187 0 9.488281-4.25 9.488281-9.492188v-35.683593c0-5.242188-4.246094-9.492188-9.488281-9.492188zm0 0" fill="#25b9c0"/><path d="m390.148438 92.925781c0 15.097657-12.238282 27.335938-27.332032 27.335938-15.097656 0-27.332031-12.238281-27.332031-27.335938 0-15.09375 12.234375-27.332031 27.332031-27.332031 15.09375 0 27.332032 12.238281 27.332032 27.332031zm0 0" fill="#e2e2e2"/><path d="m468.574219 92.925781c0 15.097657-12.234375 27.335938-27.332031 27.335938-15.09375 0-27.332032-12.238281-27.332032-27.335938 0-15.09375 12.238282-27.332031 27.332032-27.332031 15.097656 0 27.332031 12.238281 27.332031 27.332031zm0 0" fill="#e2e2e2"/><path d="m259.855469 99.359375 19.78125-11.851563c3.554687-2.128906 4.710937-6.734374 2.582031-10.289062-2.128906-3.550781-6.734375-4.707031-10.289062-2.578125l-19.785157 11.851563c-3.550781 2.128906-4.707031 6.738281-2.578125 10.289062 1.40625 2.347656 3.890625 3.648438 6.441406 3.648438 1.3125 0 2.640626-.34375 3.847657-1.070313zm0 0"/><path d="m470.472656 185.855469c22.898438 0 41.527344-18.628907 41.527344-41.527344v-102.800781c0-22.898438-18.628906-41.527344-41.527344-41.527344h-428.945312c-22.898438 0-41.527344 18.628906-41.527344 41.527344v102.796875c0 22.898437 18.628906 41.53125 41.527344 41.53125h18.683594l30.066406 258.386719h-66.390625c-13.171875 0-23.886719 10.714843-23.886719 23.886718 0 24.007813 19.53125 43.539063 43.539062 43.539063h424.921876c24.007812 0 43.539062-19.53125 43.539062-43.539063 0-13.171875-10.714844-23.886718-23.886719-23.886718h-66.386719l2.625-22.570313c.480469-4.117187-2.46875-7.839844-6.582031-8.316406-4.113281-.480469-7.835937 2.46875-8.316406 6.582031l-2.828125 24.304688h-92.0625c35.765625-32.375 37.042969-93.324219 36.367188-113.804688-.1875-5.550781-4.679688-9.898438-10.234376-9.898438h-169.390624c-5.550782 0-10.046876 4.347657-10.230469 9.898438-.675781 20.480469.601562 81.425781 36.363281 113.804688h-92.058594l-30.066406-258.386719h18.417969c4.140625 0 7.5-3.359375 7.5-7.5s-3.359375-7.5-7.5-7.5h-52.203125c-14.628906 0-26.527344-11.902344-26.527344-26.527344v-102.800781c0-14.625 11.898438-26.527344 26.527344-26.527344h428.945312c14.625 0 26.527344 11.898438 26.527344 26.527344v102.796875c0 14.628906-11.898438 26.53125-26.527344 26.53125h-341.84375c-4.144531 0-7.5 3.355469-7.5 7.5 0 4.140625 3.355469 7.5 7.5 7.5h50.207032v30.613281c0 19.246094 12.421874 35.636719 29.664062 41.605469v13.652343c0 10.453126 8.507812 18.960938 18.960938 18.960938h5.421874c10.453126 0 18.960938-8.507812 18.960938-18.960938v-11.238281h8.316406v11.238281c0 10.453126 8.503906 18.960938 18.960938 18.960938h5.417968c10.457032 0 18.960938-8.507812 18.960938-18.960938v-13.652343c8.382812-2.902344 15.632812-8.257813 20.859375-15.21875h34.597656c2.730469 4.507812 7.667969 7.539062 13.3125 7.539062h56.910157l-15.664063 134.625c-.480469 4.113281 2.46875 7.835938 6.582031 8.316407.292969.03125.585938.050781.875.050781 3.753906 0 6.996094-2.816407 7.441406-6.632813l15.863282-136.359375h52.15625c8.582031 0 15.566406-6.984375 15.566406-15.570312v-26.441407c0-8.585937-6.984375-15.570312-15.566406-15.570312h-45.453125l.808593-6.957031zm-294.503906 149.683593h160.0625c.25 25.6875-3.855469 89.636719-48.972656 108.703126h-62.117188c-45.121094-19.070313-49.222656-83.015626-48.972656-108.703126zm312.144531 123.703126c4.902344 0 8.886719 3.984374 8.886719 8.886718 0 15.734375-12.804688 28.539063-28.539062 28.539063h-424.921876c-15.734374 0-28.539062-12.804688-28.539062-28.539063 0-4.902344 3.984375-8.886718 8.886719-8.886718zm-251.273437-187.515626c0 2.183594-1.777344 3.960938-3.960938 3.960938h-5.417968c-2.183594 0-3.960938-1.777344-3.960938-3.960938v-11.234374h13.339844zm51.660156 0c0 2.183594-1.777344 3.960938-3.960938 3.960938h-5.417968c-2.183594 0-3.960938-1.777344-3.960938-3.960938v-11.234374h13.339844zm29.667969-55.257812c0 16.003906-13.019531 29.023438-29.023438 29.023438h-66.289062c-16 0-29.019531-13.019532-29.019531-29.023438v-30.613281h124.332031zm38.53125 11.386719h-25.035157c.976563-3.632813 1.503907-7.449219 1.503907-11.386719v-1.113281h23.53125zm2.253906-27.5h-25.789063v-14.5h103.523438l-.808594 6.960937h-63.613281c-5.644531-.003906-10.582031 3.027344-13.3125 7.539063zm137.480469 7.457031c.3125 0 .566406.257812.566406.570312v26.441407c0 .316406-.253906.570312-.566406.570312h-124.164063c-.292969 0-.527343-.226562-.558593-.511719 0 0 0-.003906 0-.007812l-.011719-.171875v-26.316406c0-.003907 0-.003907 0-.007813 0-.3125.253906-.566406.570312-.566406h70.285157.007812.011719zm0 0"/><path d="m310.574219 92.925781c0-30.089843-24.480469-54.570312-54.574219-54.570312s-54.574219 24.480469-54.574219 54.570312c0 30.09375 24.480469 54.574219 54.574219 54.574219s54.574219-24.480469 54.574219-54.574219zm-94.148438 0c0-21.820312 17.753907-39.570312 39.574219-39.570312s39.574219 17.75 39.574219 39.570312c0 21.820313-17.753907 39.574219-39.574219 39.574219s-39.574219-17.753906-39.574219-39.574219zm0 0"/><path d="m176.34375 110.769531v-35.683593c0-9.371094-7.621094-16.992188-16.988281-16.992188h-106.441407c-9.367187 0-16.988281 7.621094-16.988281 16.992188v35.683593c0 9.371094 7.621094 16.992188 16.988281 16.992188h106.441407c9.367187 0 16.988281-7.621094 16.988281-16.992188zm-125.421875 0v-35.683593c0-1.097657.894531-1.992188 1.992187-1.992188h106.441407c1.097656 0 1.988281.894531 1.988281 1.992188v35.683593c0 1.097657-.890625 1.992188-1.988281 1.992188h-106.441407c-1.097656 0-1.992187-.894531-1.992187-1.992188zm0 0"/><path d="m397.648438 92.925781c0-19.207031-15.625-34.832031-34.832032-34.832031-19.207031 0-34.832031 15.625-34.832031 34.832031s15.625 34.835938 34.832031 34.835938c19.207032 0 34.832032-15.628907 34.832032-34.835938zm-54.667969 0c0-10.933593 8.898437-19.832031 19.835937-19.832031 10.933594 0 19.832032 8.898438 19.832032 19.832031 0 10.9375-8.898438 19.835938-19.832032 19.835938-10.9375 0-19.835937-8.898438-19.835937-19.835938zm0 0"/><path d="m476.078125 92.925781c0-19.207031-15.628906-34.832031-34.835937-34.832031-19.207032 0-34.832032 15.625-34.832032 34.832031s15.625 34.835938 34.832032 34.835938c19.207031 0 34.835937-15.628907 34.835937-34.835938zm-54.667969 0c0-10.933593 8.898438-19.832031 19.832032-19.832031 10.9375 0 19.832031 8.898438 19.832031 19.832031 0 10.9375-8.894531 19.835938-19.832031 19.835938-10.933594 0-19.832032-8.898438-19.832032-19.835938zm0 0"/></svg>