<svg viewBox="-3 0 511 512" xmlns="http://www.w3.org/2000/svg"><path d="m338.480469 181.652344h143.25v106.929687h-143.25zm0 0" fill="#e2e2e2"/><path d="m424.898438 181.652344h56.832031v106.929687h-56.832031zm0 0" fill="#c9c9c9"/><path d="m300.5625 7.390625c-.070312 0-.140625 0-.210938 0-.070312 0-.140624 0-.210937 0 0 0-153.773437 13.566406-177.464844 70.40625v13.125c0 14.015625 11.363281 25.378906 25.382813 25.378906 14.015625 0 25.382812-11.363281 25.382812-25.378906 0 14.015625 11.363282 25.378906 25.378906 25.378906 14.019532 0 25.382813-11.363281 25.382813-25.378906 0 14.015625 11.363281 25.378906 25.382813 25.378906 14.019531 0 25.382812-11.363281 25.382812-25.378906 0 14.015625 11.363281 25.378906 25.382812 25.378906 14.015626 0 25.378907-11.363281 25.378907-25.378906 0 14.015625 11.367187 25.378906 25.382812 25.378906 14.019531 0 25.382813-11.363281 25.382813-25.378906 0 14.015625 11.363281 25.378906 25.382812 25.378906 14.015625 0 25.382813-11.363281 25.382813-25.378906 0 14.015625 11.363281 25.378906 25.378906 25.378906 14.019531 0 25.382813-11.363281 25.382813-25.378906v-13.125c-23.683594-56.839844-177.460938-70.40625-177.460938-70.40625zm0 0" fill="#fd8f31"/><path d="m68.09375 316.605469h-53.878906c-3.492188 0-6.324219-2.832031-6.324219-6.324219v-14.707031c0-3.492188 2.832031-6.320313 6.324219-6.320313h53.878906c3.492188 0 6.320312 2.832032 6.320312 6.320313v14.707031c0 3.492188-2.828124 6.324219-6.320312 6.324219zm0 0" fill="#d87e35"/><path d="m300.5625 7.390625c-.070312 0-.140625 0-.210938 0-.070312 0-.140624 0-.210937 0 0 0-11.285156.996094-28.203125 3.578125 45.550781 6.945312 131.984375 25.382812 149.257812 66.828125h56.832032c-23.6875-56.839844-177.464844-70.40625-177.464844-70.40625zm0 0" fill="#ef802e"/><path d="m148.058594 116.300781c-14.019532 0-25.382813-11.363281-25.382813-25.378906v-13.125h50.765625v13.125c-.003906 14.015625-11.367187 25.378906-25.382812 25.378906zm0 0" fill="#ffc064"/><path d="m198.820312 116.300781c-14.015624 0-25.378906-11.363281-25.378906-25.378906v-13.125h50.761719v13.125c0 14.015625-11.363281 25.378906-25.382813 25.378906zm0 0" fill="#efa335"/><path d="m249.585938 116.300781c-14.019532 0-25.382813-11.363281-25.382813-25.378906v-13.125h50.765625v13.125c0 14.015625-11.363281 25.378906-25.382812 25.378906zm0 0" fill="#ffc064"/><path d="m300.351562 116.300781c-14.019531 0-25.382812-11.363281-25.382812-25.378906v-13.125h50.765625v13.125c0 14.015625-11.363281 25.378906-25.382813 25.378906zm0 0" fill="#efa335"/><path d="m351.117188 116.300781c-14.019532 0-25.382813-11.363281-25.382813-25.378906v-13.125h50.765625v13.125c-.003906 14.015625-11.367188 25.378906-25.382812 25.378906zm0 0" fill="#ffc064"/><path d="m401.882812 116.300781c-14.019531 0-25.382812-11.363281-25.382812-25.378906v-13.125h50.765625v13.125c-.003906 14.015625-11.367187 25.378906-25.382813 25.378906zm0 0" fill="#efa335"/><path d="m452.644531 116.300781c-14.015625 0-25.378906-11.363281-25.378906-25.378906v-13.125h50.761719v13.125c0 14.015625-11.363282 25.378906-25.382813 25.378906zm0 0" fill="#ffc064"/><path d="m484.820312 181.652344h-149.429687c-2.382813 0-4.3125 1.929687-4.3125 4.3125v16.496094c0 2.382812 1.929687 4.3125 4.3125 4.3125h149.429687c2.382813 0 4.3125-1.929688 4.3125-4.3125v-16.496094c0-2.382813-1.929687-4.3125-4.3125-4.3125zm0 0" fill="#fc4e51"/><path d="m484.820312 181.652344h-52.519531v25.121094h52.519531c2.382813 0 4.3125-1.929688 4.3125-4.3125v-16.496094c0-2.382813-1.929687-4.3125-4.3125-4.3125zm0 0" fill="#ea3942"/><path d="m494.085938 440.863281h-387.472657c-1.992187 0-3.609375-1.613281-3.609375-3.609375v-158.53125c0-1.992187 1.617188-3.609375 3.609375-3.609375h387.472657c1.996093 0 3.609374 1.617188 3.609374 3.609375v158.53125c.003907 1.992188-1.613281 3.609375-3.609374 3.609375zm0 0" fill="#fc4e51"/><path d="m494.085938 275.113281h-52.667969v165.75h52.667969c1.996093 0 3.609374-1.617187 3.609374-3.609375v-158.53125c.003907-1.992187-1.613281-3.609375-3.609374-3.609375zm0 0" fill="#ea3942"/><path d="m494.085938 275.113281h-387.472657c-1.992187 0-3.609375 1.613281-3.609375 3.609375v24.207032h394.695313v-24.207032c0-1.992187-1.617188-3.609375-3.613281-3.609375zm0 0" fill="#ffc064"/><path d="m494.085938 275.113281h-52.667969v27.816407h56.277343v-24.207032c.003907-1.992187-1.613281-3.609375-3.609374-3.609375zm0 0" fill="#efa335"/><path d="m424.367188 413.675781c-25.109376 0-45.464844 20.355469-45.464844 45.464844 0 25.113281 20.355468 45.46875 45.464844 45.46875 25.109374 0 45.464843-20.355469 45.464843-45.46875 0-25.109375-20.355469-45.464844-45.464843-45.464844zm0 0" fill="#31363b"/><path d="m424.367188 441.375c-9.8125 0-17.765626 7.953125-17.765626 17.765625s7.953126 17.769531 17.765626 17.769531 17.765624-7.957031 17.765624-17.769531-7.953124-17.765625-17.765624-17.765625zm0 0" fill="#e2e2e2"/><path d="m169.71875 413.675781c-25.109375 0-45.464844 20.355469-45.464844 45.464844 0 25.113281 20.355469 45.46875 45.464844 45.46875s45.46875-20.355469 45.46875-45.46875c0-25.109375-20.359375-45.464844-45.46875-45.464844zm0 0" fill="#31363b"/><path d="m169.71875 441.375c-9.8125 0-17.765625 7.953125-17.765625 17.765625s7.953125 17.769531 17.765625 17.769531 17.769531-7.957031 17.769531-17.769531-7.957031-17.765625-17.769531-17.765625zm0 0" fill="#e2e2e2"/><path d="m494.089844 267.722656h-4.96875v-54.386718c4.332031-1.71875 7.40625-5.941407 7.40625-10.875v-16.496094c0-6.457032-5.25-11.707032-11.703125-11.707032h-149.433594c-6.457031 0-11.707031 5.25-11.707031 11.707032v16.496094c0 4.933593 3.074218 9.15625 7.40625 10.875v54.382812h-23.347656v-144.875c7.183593-1.664062 13.472656-5.691406 17.992187-11.21875 6.011719 7.359375 15.15625 12.066406 25.382813 12.066406 10.222656 0 19.367187-4.707031 25.378906-12.066406 6.015625 7.359375 15.160156 12.066406 25.382812 12.066406 10.226563 0 19.367188-4.707031 25.382813-12.066406 6.015625 7.359375 15.160156 12.066406 25.382812 12.066406 18.070313 0 32.773438-14.703125 32.773438-32.773437v-13.046875c.003906-.269532-.011719-.539063-.035157-.8125-.007812-.070313-.023437-.140625-.03125-.214844-.023437-.164062-.042968-.332031-.078124-.496094-.03125-.160156-.074219-.3125-.117188-.46875-.019531-.078125-.035156-.15625-.058594-.230468-.085937-.28125-.1875-.554688-.304687-.820313-10.828125-25.777344-45.332031-46.207031-102.5625-60.714844-41.503907-10.519531-79.421875-13.945312-81.015625-14.0859372-.21875-.015625-.433594-.0273438-.652344-.0273438h-.425781c-.214844 0-.433594.0117188-.648438.0273438-1.59375.1406252-39.511719 3.5664062-81.015625 14.0859372-57.234375 14.511719-91.742187 34.9375-102.566406 60.71875-.117188.265625-.21875.535157-.304688.816407-.023437.074218-.039062.152343-.058593.226562-.042969.15625-.085938.3125-.117188.472656-.03125.15625-.050781.316406-.074219.472656-.011718.082032-.027343.160157-.035156.242188-.027344.265625-.039062.535156-.035156.800781v13.054688c0 18.070312 14.703125 32.773437 32.773438 32.773437 10.222656 0 19.367187-4.707031 25.382812-12.066406 6.015625 7.359375 15.160156 12.066406 25.382812 12.066406 10.226563 0 19.367188-4.707031 25.382813-12.066406 6.015625 7.359375 15.15625 12.066406 25.382813 12.066406 10.222656 0 19.367187-4.707031 25.382812-12.066406 4.515625 5.53125 10.804688 9.554688 17.988281 11.21875v144.878906h-186.34375c-6.066406 0-11 4.933594-11 11v16.8125h-13.808593c-.019532-7.542968-6.164063-13.675781-13.710938-13.675781h-53.878906c-7.5625 0-13.714844 6.152344-13.714844 13.714844v14.707031c0 7.5625 6.152344 13.714844 13.714844 13.714844h53.878906c7.546875 0 13.691406-6.132813 13.710938-13.675782h13.808593v126.933594c0 6.066406 4.933594 11.003906 11 11.003906h11.382813c-.738282 3.511719-1.132813 7.152344-1.132813 10.882813 0 29.148437 23.710938 52.859375 52.855469 52.859375 29.148438 0 52.859375-23.710938 52.859375-52.859375 0-3.730469-.394531-7.371094-1.132813-10.882813h151.199219c-.742187 3.511719-1.132812 7.152344-1.132812 10.882813 0 29.148437 23.710937 52.859375 52.855469 52.859375 29.144531 0 52.859374-23.710938 52.859374-52.859375 0-3.730469-.394531-7.371094-1.132812-10.882813h17.996094c6.0625 0 11-4.9375 11-11.003906v-158.53125c0-6.066406-4.9375-11-11-11zm-427.066406 41.492188h-51.738282v-12.570313h51.738282zm271.445312-120.171875h143.273438v10.339843h-.003907c-.003906 0-.003906 0-.007812 0-.003907 0-.007813 0-.011719 0h-85.625c-4.082031 0-7.390625 3.308594-7.390625 7.390626 0 4.082031 3.308594 7.390624 7.390625 7.390624h78.242188v53.554688h-128.464844v-53.554688h15.832031c4.085937 0 7.394531-3.308593 7.394531-7.390624 0-4.082032-3.3125-7.390626-7.394531-7.390626h-23.210937c-.003907 0-.007813 0-.011719 0-.003907 0-.003907 0-.007813 0h-.003906zm30.636719-98.125c0 9.921875-8.070313 17.992187-17.988281 17.992187-9.921876 0-17.992188-8.070312-17.992188-17.992187v-5.730469h35.980469zm50.765625 0c0 9.921875-8.070313 17.992187-17.992188 17.992187-9.917968 0-17.988281-8.070312-17.988281-17.992187v-5.730469h35.980469zm50.765625 0c0 9.921875-8.070313 17.992187-17.992188 17.992187-9.917969 0-17.992187-8.070312-17.992187-17.992187v-5.730469h35.984375zm-304.589844 0c0 9.921875-8.070313 17.992187-17.988281 17.992187-9.921875 0-17.992188-8.070312-17.992188-17.992187v-5.730469h35.980469zm50.765625 0c0 9.921875-8.070312 17.992187-17.992188 17.992187-9.917968 0-17.992187-8.070312-17.992187-17.992187v-5.730469h35.984375zm50.765625 0c0 9.921875-8.070313 17.992187-17.992187 17.992187-9.921876 0-17.992188-8.070312-17.992188-17.992187v-5.730469h35.984375zm-131.773437-20.511719c13.65625-16.621094 43.023437-30.972656 86.128906-41.917969 38.035156-9.660156 74.058594-13.277343 78.417968-13.691406 4.359376.414063 40.382813 4.03125 78.417969 13.691406 43.105469 10.945313 72.472657 25.296875 86.128907 41.917969zm146.554687 20.511719v-5.730469h35.984375v5.730469c0 9.921875-8.074219 17.992187-17.992188 17.992187-9.921874 0-17.992187-8.070312-17.992187-17.992187zm-112.640625 406.300781c-20.992188 0-38.074219-17.082031-38.074219-38.078125 0-20.992187 17.082031-38.074219 38.074219-38.074219 20.996094 0 38.078125 17.082032 38.078125 38.074219 0 20.996094-17.082031 38.078125-38.078125 38.078125zm254.648438 0c-20.996094 0-38.074219-17.082031-38.074219-38.078125 0-20.992187 17.078125-38.074219 38.074219-38.074219 20.996093 0 38.074218 17.082032 38.074218 38.074219 0 20.996094-17.078125 38.078125-38.074218 38.078125zm65.9375-201.683594h-317.238282c-4.082031 0-7.390625 3.3125-7.390625 7.394532 0 4.082031 3.308594 7.390624 7.390625 7.390624h317.242188v123.152344h-19.757813c-9.039062-16.203125-26.347656-27.191406-46.183593-27.191406-19.832032 0-37.140626 10.988281-46.183594 27.191406h-162.277344c-9.042969-16.203125-26.351562-27.191406-46.183594-27.191406-19.835937 0-37.144531 10.988281-46.1875 27.191406h-13.136718v-123.152344h28.277343c4.082031 0 7.390625-3.308593 7.390625-7.390624 0-4.082032-3.308594-7.390626-7.390625-7.390626h-28.277343v-13.035156h379.910156v13.03125zm0 0"/><path d="m424.367188 433.984375c-13.871094 0-25.15625 11.285156-25.15625 25.15625 0 13.875 11.28125 25.160156 25.15625 25.160156 13.871093 0 25.160156-11.285156 25.160156-25.160156 0-13.871094-11.289063-25.15625-25.160156-25.15625zm0 35.535156c-5.722657 0-10.375-4.65625-10.375-10.378906 0-5.71875 4.652343-10.375 10.375-10.375 5.722656 0 10.375 4.65625 10.375 10.375 0 5.722656-4.652344 10.378906-10.375 10.378906zm0 0"/><path d="m169.71875 433.984375c-13.871094 0-25.15625 11.285156-25.15625 25.15625 0 13.875 11.285156 25.160156 25.15625 25.160156 13.875 0 25.160156-11.285156 25.160156-25.160156 0-13.871094-11.285156-25.15625-25.160156-25.15625zm0 35.535156c-5.71875 0-10.375-4.65625-10.375-10.378906 0-5.71875 4.65625-10.375 10.375-10.375 5.722656 0 10.378906 4.65625 10.378906 10.375 0 5.722656-4.65625 10.378906-10.378906 10.378906zm0 0"/></svg>