<?xml version="1.0" encoding="iso-8859-1"?>
<!-- Generator: Adobe Illustrator 19.0.0, SVG Export Plug-In . SVG Version: 6.00 Build 0)  -->
<svg version="1.1" id="Capa_1" xmlns="http://www.w3.org/2000/svg" xmlns:xlink="http://www.w3.org/1999/xlink" x="0px" y="0px"
	 viewBox="0 0 512.246 512.246" style="enable-background:new 0 0 512.246 512.246;" xml:space="preserve">
<g>
	<path style="fill:#FFA800;" d="M503.2,161.56l-30.549,137.216h-54.528l36.352-147.2c0.313-1.154,0.866-2.23,1.621-3.157
		c1.711-2.428,4.666-3.657,7.595-3.157l32.939,5.803c2.289,0.475,4.285,1.864,5.526,3.845
		C503.396,156.891,503.773,159.294,503.2,161.56L503.2,161.56z"/>
	<path style="fill:#FFA800;" d="M416.757,103.704l-20.139,120.32l-22.955-15.701l-26.539-18.176l1.451-7.595l0.085-0.341v-0.085
		l0.085-0.427l0.085-0.683l16.469-88.491c0.18-1.069,0.588-2.088,1.195-2.987c1.86-3.158,5.573-4.72,9.131-3.84l25.6,5.973
		l9.045,2.133C414.715,94.866,417.56,99.207,416.757,103.704L416.757,103.704z"/>
</g>
<g>
	<path style="fill:#FEDD0A;" d="M477.6,161.56l-30.549,137.216h-28.928l36.352-147.2c0.313-1.154,0.866-2.23,1.621-3.157
		l14.933,2.645c2.289,0.475,4.285,1.864,5.526,3.845C477.796,156.891,478.173,159.294,477.6,161.56z"/>
	<path style="fill:#FEDD0A;" d="M391.157,103.704l-17.493,104.619l-26.539-18.176l1.451-7.595l0.085-0.341v-0.085l0.085-0.427
		l0.085-0.683L365.3,92.525c0.18-1.069,0.588-2.088,1.195-2.987l9.131,2.133l9.045,2.133
		C389.115,94.866,391.96,99.207,391.157,103.704z"/>
</g>
<path style="fill:#FFA800;" d="M452.256,61.037v99.499l-24.747,100.181l-0.853-0.256l-18.261-22.101l-11.776-14.336l20.139-120.32
	c0.802-4.497-2.042-8.839-6.485-9.899l-9.045-2.133l0.939-31.317c0.041-1.826,0.604-3.603,1.621-5.12
	c1.398-2.406,3.959-3.897,6.741-3.925h33.365c2.411,0.15,4.659,1.268,6.233,3.1C451.701,56.241,452.469,58.631,452.256,61.037
	L452.256,61.037z"/>
<path style="fill:#FEDD0A;" d="M426.656,64.963v99.499l-18.261,73.899l-11.776-14.336l20.139-120.32
	c0.802-4.497-2.042-8.839-6.485-9.899l-9.045-2.133l0.939-31.317c0.041-1.826,0.604-3.603,1.621-5.12h14.507
	c2.411,0.151,4.658,1.269,6.233,3.1C426.101,60.167,426.869,62.557,426.656,64.963z"/>
<path style="fill:#FFA800;" d="M397.357,503.576H149.024c-30.975-0.727-57.601-22.164-64.923-52.269L42.656,298.776h461.069
	l-41.444,152.531C454.958,481.413,428.332,502.849,397.357,503.576z"/>
<path style="fill:#FFFFFF;" d="M363.224,503.576H114.891c-30.975-0.727-57.601-22.164-64.923-52.269L8.523,298.776h461.069
	l-41.444,152.531C420.825,481.413,394.198,502.849,363.224,503.576z"/>
<path style="fill:#FFA800;" d="M179.189,452.376h-47.685c-13.283-0.05-24.962-8.805-28.733-21.542l-17.179-63.792"/>
<polygon style="fill:#FEDD0A;" points="254.965,102.509 247.456,298.776 213.323,298.776 206.496,102.509 "/>
<g>
	<path style="fill:#FFA800;" d="M213.323,298.776h-51.456L153.59,60.099c-0.057-2.318,0.827-4.561,2.451-6.217
		c1.624-1.656,3.849-2.584,6.168-2.572h34.219c4.637-0.022,8.454,3.643,8.619,8.277L213.323,298.776z"/>
	<path style="fill:#FFA800;" d="M306.848,85.784l-8.192,212.992h-51.2l8.192-213.675c0.19-4.576,3.953-8.189,8.533-8.192h34.133
		c2.324-0.003,4.548,0.943,6.159,2.618C306.084,81.202,306.942,83.462,306.848,85.784L306.848,85.784z"/>
	<path style="fill:#FFA800;" d="M341.493,234.947l-8.704,63.829"/>
	<path style="fill:#FFA800;" d="M385.44,289.987l-1.451,8.789"/>
	<polyline style="fill:#FFA800;" points="326.816,298.776 339.36,232.301 339.36,232.216 	"/>
	<path style="fill:#FFA800;" d="M426.656,260.461l-8.533,38.315h-22.528l-53.419-63.829l-13.056-15.531
		c-2.177-2.514-2.584-6.108-1.024-9.045c0.442-0.855,1.018-1.633,1.707-2.304l18.773-18.005l4.181-3.925
		c1.832-1.739,4.301-2.643,6.822-2.498s4.87,1.327,6.49,3.266L426.656,260.461z"/>
</g>
<path style="fill:#FEDD0A;" d="M409.589,277.528l-4.693,21.248h-9.301l-53.419-63.829l-13.056-15.531
	c-2.177-2.514-2.584-6.108-1.024-9.045l3.413-3.243l4.181-3.925c1.832-1.739,4.301-2.643,6.822-2.498s4.87,1.327,6.49,3.266
	L409.589,277.528z"/>
<path style="fill:#FFA800;" d="M116.278,262.831l0.594,39.249l-21.913,5.229l-66.776-49.686l-16.304-12.075
	c-2.701-1.94-3.931-5.342-3.096-8.561c0.231-0.934,0.611-1.824,1.125-2.637l14.081-21.871l3.156-4.789
	c1.378-2.117,3.57-3.569,6.056-4.013s5.045,0.161,7.07,1.67L116.278,262.831z"/>
<g>
	<path style="fill:#FEDD0A;" d="M103.639,283.393l0.367,21.757l-9.047,2.159l-66.776-49.686l-16.304-12.075
		c-2.701-1.94-3.931-5.342-3.096-8.561l2.567-3.946l3.156-4.789c1.378-2.117,3.57-3.569,6.056-4.013s5.045,0.161,7.07,1.67
		L103.639,283.393z"/>
	<path style="fill:#FEDD0A;" d="M375.695,503.576H136.553c-30.322-1.124-56.041-22.626-62.52-52.269l-39.91-152.531h444.003
		l-39.91,152.531C431.735,480.95,406.017,502.452,375.695,503.576L375.695,503.576z"/>
	<path style="fill:#FEDD0A;" d="M153.589,452.376h-47.685c-13.283-0.05-24.962-8.805-28.733-21.542l-17.179-63.792"/>
	<path style="fill:#FEDD0A;" d="M187.723,298.776h-25.856L153.59,60.099c-0.057-2.318,0.827-4.561,2.451-6.217
		c1.624-1.656,3.849-2.584,6.168-2.572h8.619c4.637-0.022,8.454,3.643,8.619,8.277L187.723,298.776z"/>
	<path style="fill:#FEDD0A;" d="M281.248,85.784l-8.192,212.992h-25.6l8.192-213.675c0.19-4.576,3.953-8.189,8.533-8.192h8.533
		c2.324-0.003,4.548,0.943,6.159,2.618C280.484,81.202,281.342,83.462,281.248,85.784z"/>
	<path style="fill:#FEDD0A;" d="M315.893,234.947l-8.704,63.829"/>
	<path style="fill:#FEDD0A;" d="M359.84,289.987l-1.451,8.789"/>
	<polyline style="fill:#FEDD0A;" points="301.216,298.776 313.76,232.301 313.76,232.216 	"/>
</g>
<path d="M389.539,512.109H122.956c-36.025-0.119-67.687-23.904-77.833-58.471l-17.117-58.592c-1.321-4.524,1.276-9.262,5.8-10.583
	s9.262,1.276,10.583,5.8l17.125,58.612c8.004,27.293,33,46.074,61.441,46.167h266.583c28.45-0.124,53.453-18.886,61.525-46.167
	l41.275-141.567H20.164l4.284,14.683c0.854,2.927,0.083,6.087-2.025,8.29s-5.23,3.115-8.192,2.392s-5.313-2.972-6.167-5.898
	l-7.475-25.609c-0.752-2.579-0.246-5.361,1.365-7.51c1.611-2.149,4.14-3.414,6.826-3.415h494.933c2.686,0,5.214,1.265,6.826,3.413
	c1.611,2.148,2.118,4.93,1.366,7.508l-44.459,152.492C457.225,488.199,425.563,511.954,389.539,512.109z"/>
<path d="M24.481,367.043c-2.232-0.045-4.365-0.929-5.975-2.475c-1.636-1.591-2.558-3.776-2.558-6.058s0.923-4.467,2.558-6.058
	c0.785-0.771,1.714-1.382,2.733-1.796c2.106-0.85,4.46-0.85,6.567,0c1.02,0.414,1.948,1.024,2.733,1.796
	c1.636,1.591,2.558,3.776,2.558,6.058s-0.923,4.467-2.558,6.058c-0.786,0.769-1.715,1.378-2.733,1.792
	C26.751,366.798,25.623,367.029,24.481,367.043z"/>
<path d="M179.189,460.91h-47.683c-17.07-0.065-32.077-11.316-36.925-27.683l-17.234-63.963c-1.227-4.552,1.469-9.236,6.021-10.463
	c4.552-1.227,9.236,1.469,10.463,6.021l17.183,63.792c2.737,9.031,11.055,15.213,20.492,15.229h47.683
	c4.713,0,8.533,3.82,8.533,8.533S183.902,460.91,179.189,460.91z"/>
<path d="M221.856,460.91h-8.533c-4.713,0-8.533-3.821-8.533-8.533s3.82-8.533,8.533-8.533h8.533c4.713,0,8.533,3.82,8.533,8.533
	S226.569,460.91,221.856,460.91z"/>
<rect x="204.79" y="290.24" width="8.533" height="17.07"/>
<rect x="247.46" y="290.24" width="8.533" height="17.07"/>
<path d="M213.323,307.309h-51.458c-4.598,0.001-8.368-3.643-8.525-8.237l-8.275-238.679c-0.171-4.6,1.552-9.068,4.767-12.362
	c3.248-3.348,7.71-5.243,12.375-5.254h34.217c9.229-0.036,16.82,7.26,17.15,16.483l8.275,239.221
	c0.084,2.314-0.777,4.562-2.385,6.227C217.854,306.373,215.638,307.312,213.323,307.309L213.323,307.309z M170.106,290.243h34.383
	l-7.967-230.371l-34.317-0.029L170.106,290.243z"/>
<path d="M298.656,307.309h-51.2c-2.32,0.001-4.539-0.943-6.148-2.615c-1.608-1.671-2.467-3.926-2.377-6.244l8.192-213.683
	c0.331-9.172,7.88-16.426,17.058-16.392h34.133c4.641-0.003,9.082,1.884,12.301,5.227c3.219,3.343,4.936,7.853,4.757,12.49v0.042
	l-0.683,16.725L307.18,299.1C307.006,303.683,303.241,307.308,298.656,307.309z M256.323,290.243h34.116l7.883-204.771l-0.008-0.038
	l-34.133,0.009L256.323,290.243z"/>
<path style="fill:#FFA800;" d="M329.803,208.067c-3.22,2.995-3.52,7.99-0.683,11.349l10.581,12.544l-0.341,0.256v0.085
	l-12.544,66.475h-28.16l7.339-192.341l0.171-3.925h1.024l43.008,7.168c4.552,0.754,7.686,4.983,7.083,9.557l-9.643,70.827
	l0.171,0.768L329.803,208.067z"/>
<path style="fill:#FEDD0A;" d="M305.227,208.067c-3.22,2.995-3.52,7.99-0.683,11.349l10.581,12.544l-0.341,0.256v0.085
	l-12.544,66.475h-3.584l7.339-192.341l19.627,3.243c4.552,0.754,7.686,4.983,7.083,9.557l-9.643,70.827l0.171,0.768L305.227,208.067
	z"/>
<path d="M326.814,307.309h-28.158c-2.32,0.001-4.539-0.943-6.148-2.615c-1.608-1.671-2.467-3.926-2.377-6.244l7.508-196.267
	c0.175-4.582,3.939-8.207,8.525-8.208h1.025c0.469-0.001,0.937,0.038,1.4,0.117l43.008,7.167
	c9.111,1.479,15.384,9.949,14.142,19.096l-9.55,70.141c0.04,2.404-0.849,4.732-2.483,6.496l-18,17.237l-0.042,0.042l-0.017,0.017
	l10.575,12.171c1.509,1.791,2.217,4.123,1.958,6.45c-0.107,0.929-0.363,1.835-0.758,2.683l-12.225,64.767
	C334.437,304.39,330.916,307.309,326.814,307.309z M307.522,290.243h12.217l10.592-56.15l-7.733-9.175
	c-5.769-6.799-5.19-16.928,1.317-23.025l15.525-14.867l9.383-68.942l-34.492-5.737L307.522,290.243z"/>
<path style="fill:#FFA800;" d="M161.867,298.776h-42.923l-16.469-162.731c-0.478-4.5,2.689-8.572,7.168-9.216l20.821-3.413
	l23.125-3.84l2.048-0.085L161.867,298.776z"/>
<path style="fill:#FEDD0A;" d="M136.523,298.776h-17.579l-16.469-162.731c-0.478-4.5,2.689-8.572,7.168-9.216l20.821-3.413
	L136.523,298.776z"/>
<path d="M161.864,307.309h-42.917c-4.382-0.001-8.051-3.319-8.492-7.679L93.981,136.922c-0.99-9.045,5.375-17.245,14.383-18.529
	l43.833-7.237c0.345-0.055,0.693-0.09,1.042-0.104l2.05-0.083c2.27-0.094,4.484,0.722,6.15,2.267s2.647,3.691,2.724,5.962
	l6.225,179.283c0.084,2.313-0.777,4.561-2.385,6.227C166.396,306.373,164.179,307.312,161.864,307.309L161.864,307.309z
	 M126.664,290.243h26.367l-5.592-161.004l-36.408,6.012l0.875,9.05L126.664,290.243z"/>
<path style="fill:#FFA800;" d="M292.597,30.317l-13.824,45.909v0.683h-14.592c-4.58,0.003-8.343,3.616-8.533,8.192l-0.683,17.408
	h-37.632l2.56-8.533l23.808-79.189c0.625-2.193,2.113-4.039,4.123-5.117c2.01-1.077,4.371-1.294,6.544-0.601l11.179,3.584
	l21.419,6.741c2.197,0.7,4.025,2.244,5.081,4.293C293.103,25.737,293.301,28.122,292.597,30.317z"/>
<path style="fill:#FEDD0A;" d="M268.021,21.784l-13.824,45.909l-8.474,26.683l-25.83-0.4l23.808-79.189
	c0.625-2.193,2.113-4.039,4.123-5.117c2.01-1.077,4.371-1.294,6.544-0.601l11.179,3.584
	C268.128,14.925,269.103,18.52,268.021,21.784z"/>
<path d="M247.456,307.309h-34.133c-4.598,0.001-8.368-3.643-8.525-8.237l-6.825-196.267c-0.084-2.314,0.777-4.562,2.385-6.227
	s3.825-2.605,6.14-2.602h48.467c2.32-0.001,4.539,0.943,6.148,2.615c1.608,1.671,2.467,3.926,2.377,6.244l-7.508,196.267
	C255.806,303.683,252.041,307.308,247.456,307.309z M221.564,290.243h17.675l6.858-179.2H215.33L221.564,290.243z"/>
<path d="M254.964,111.043h-37.633c-2.698,0.001-5.238-1.275-6.848-3.44s-2.103-4.964-1.327-7.548l26.367-87.729
	c1.288-4.385,4.291-8.066,8.328-10.208s8.768-2.566,13.122-1.175L289.54,11.26c4.308,1.319,7.906,4.314,9.983,8.312
	c2.169,4.073,2.614,8.846,1.233,13.25l-13.683,45.442c-0.812,4.002-4.223,6.952-8.3,7.179h-14.591l-0.692,17.4
	C263.313,107.423,259.548,111.044,254.964,111.043L254.964,111.043z M228.797,93.976h17.959l0.367-9.208
	c0.331-9.172,7.88-16.426,17.058-16.392h8.042l12.199-40.521l0.033-0.1c0.025-0.081,0.009-0.169-0.042-0.237l-32.625-10.317
	L228.797,93.976z"/>
<path d="M80.123,305.543L6.564,249.051c-7.301-5.905-8.714-16.487-3.217-24.1l15.292-21.488c2.642-3.708,6.674-6.189,11.175-6.875
	c4.376-0.683,8.843,0.434,12.383,3.096l22.567,16.513l-10.083,13.775l-22.617-16.554l-14.883,21.525l73.342,57.067L80.123,305.543z"
	/>
<path style="fill:#FFA800;" d="M115.445,263.96l-23.296-17.067l-32.427-23.808v-69.376c0.014-4.707,3.826-8.519,8.533-8.533h35.157
	L115.445,263.96z"/>
<path style="fill:#FEDD0A;" d="M92.149,246.893l-32.427-23.808v-69.376c0.014-4.707,3.826-8.519,8.533-8.533h13.568L92.149,246.893z
	"/>
<path d="M115.447,272.493c-1.817,0.001-3.586-0.578-5.05-1.654l-55.725-40.875c-2.191-1.607-3.485-4.162-3.483-6.879V153.71
	c0.011-9.421,7.645-17.056,17.067-17.067h35.158c4.381-0.001,8.051,3.316,8.492,7.675l12.033,118.783
	c0.241,2.4-0.544,4.791-2.162,6.58C120.16,271.471,117.86,272.492,115.447,272.493L115.447,272.493z M68.256,218.759l36.767,26.971
	l-9.325-92.02H68.256V218.759z"/>
<polygon points="104.096,153.709 103.413,153.709 103.413,136.643 "/>
<rect x="51.19" y="278.89" width="17.07" height="19.883"/>
<path d="M480.981,300.63l-16.667-3.708l30.55-137.217l-32.658-6.042l-1.667,8.92l-16.567-4.1l2.217-8.958
	c2.02-8.515,10.254-14.041,18.9-12.683l33.025,5.817c4.507,0.805,8.482,3.436,10.983,7.271c2.611,3.992,3.483,8.876,2.417,13.525
	L480.981,300.63z"/>
<rect x="403.229" y="271.245" transform="matrix(0.2393 -0.9709 0.9709 0.2393 49.9909 623.3681)" width="39.198" height="17.069"/>
<rect x="380.238" y="285.852" transform="matrix(0.1627 -0.9867 0.9867 0.1627 31.6448 626.0537)" width="8.909" height="17.06"/>
<path d="M355.506,191.747l-16.767-3.2l1.45-7.596l0.075-0.333l0.025-0.117h0.009c0.042-0.196,0.1-0.396,0.125-0.504l2.45,0.658
	l5.958,0.362l-8.392-1.563l16.466-88.491c0.825-4.6,3.503-8.658,7.408-11.226c3.904-2.568,8.692-3.418,13.242-2.353l25.609,5.979
	l-3.883,16.616l-25.6-5.975l-16.458,88.575c-0.01,0.627-0.117,1.248-0.317,1.842L355.506,191.747z"/>
<path d="M427.506,269.251c-0.841,0-1.678-0.124-2.483-0.367l-0.85-0.262c-1.607-0.486-3.033-1.437-4.1-2.733l-30.033-36.433
	c-1.574-1.906-2.242-4.4-1.833-6.838l20.133-120.321l-9.075-2.321c-3.947-0.93-6.695-4.509-6.575-8.563l0.942-31.317
	c0.02-9.395,7.508-17.07,16.9-17.321h33.358c4.457,0.007,8.717,1.836,11.792,5.062c3.407,3.581,5.245,8.372,5.108,13.313v99.383
	c0,0.69-0.084,1.377-0.25,2.046l-24.75,100.183C434.851,266.576,431.431,269.254,427.506,269.251L427.506,269.251z M405.681,221.597
	l17.467,21.188l20.575-83.288V61.039c0-0.087,0-0.179,0.009-0.267c0.038-0.383-0.076-0.766-0.317-1.067l-32.717,0.137
	c0.158,0.054,0.009,0.346-0.009,0.808l-0.725,24.312l2.267,0.538c8.817,2.104,14.482,10.696,12.942,19.629L405.681,221.597z"/>
<polygon style="fill:#FEDD0A;" points="395.595,298.776 332.789,298.776 341.493,234.947 341.92,234.605 342.176,234.947 "/>
<path d="M395.598,307.309H332.79c-2.464-0.002-4.807-1.068-6.428-2.924c-1.621-1.856-2.361-4.322-2.031-6.763l8.7-63.829
	c0.302-2.189,1.44-4.177,3.175-5.546c1.881-1.49,4.272-2.181,6.658-1.925c2.335,0.244,4.475,1.413,5.942,3.246l53.333,63.733
	c2.13,2.54,2.594,6.085,1.192,9.088C401.928,305.393,398.912,307.312,395.598,307.309L395.598,307.309z M342.564,290.243h34.767
	l-29.9-35.717L342.564,290.243z"/>
<rect x="333.908" y="230.917" transform="matrix(0.7653 -0.6436 0.6436 0.7653 -71.0126 275.5956)" width="17.069" height="8.533"/>
<path d="M390.031,229.447l-30.55-37.121c-0.213,0.021-0.428,0.026-0.642,0.017c-0.081-0.009-0.163-0.003-0.242,0.017l-4.742,4.487
	l-12.1-12.033l5.158-4.904c3.564-3.359,8.361-5.09,13.248-4.783c4.888,0.308,9.429,2.628,12.543,6.408l30.508,37.071
	L390.031,229.447z"/>
<g>
</g>
<g>
</g>
<g>
</g>
<g>
</g>
<g>
</g>
<g>
</g>
<g>
</g>
<g>
</g>
<g>
</g>
<g>
</g>
<g>
</g>
<g>
</g>
<g>
</g>
<g>
</g>
<g>
</g>
</svg>
