<svg id="Layer_5" enable-background="new 0 0 64 64" height="512" viewBox="0 0 64 64" width="512" xmlns="http://www.w3.org/2000/svg"><path d="m58 61v-9h-2v9h-2v-9h-2v9h-4v-9h-2v9h-2v-9h-2v9h-6v-18h14v-8h-7v-2h8c1.654 0 3-1.346 3-3v-22c0-1.654-1.346-3-3-3h-38c-1.654 0-3 1.346-3 3v22c0 1.654 1.346 3 3 3h8v2h-7v8h14v18h-6v-9h-2v9h-2v-9h-2v9h-4v-9h-2v9h-2v-9h-2v9h-5v2h62v-2zm-19-26v-7.764c0-1.76-.978-3.343-2.553-4.13-.892-.447-1.447-1.344-1.447-2.342v-.764h10v.764c0 .998-.555 1.895-1.447 2.341-1.575.788-2.553 2.371-2.553 4.131v7.764zm-12-2h10v2h-10zm-14-2c-.551 0-1-.449-1-1v-22c0-.551.449-1 1-1h38c.551 0 1 .449 1 1v22c0 .551-.449 1-1 1h-8v-3.764c0-.998.555-1.895 1.447-2.341 1.575-.788 2.553-2.37 2.553-4.13v-10.765h-2v8h-2v-8h-2v8h-2v-8h-2v8h-2v-8h-2v10.764c0 1.76.978 3.343 2.553 4.13.892.447 1.447 1.344 1.447 2.342v3.764h-10v-5.15c0-.931.383-1.794 1.023-2.308 1.864-1.496 2.977-3.941 2.977-6.542 0-4.411-3.14-8-7-8s-7 3.589-7 8c0 2.601 1.113 5.046 2.976 6.541.641.515 1.024 1.377 1.024 2.309v5.15zm8.228-9.019c-1.395-1.119-2.228-2.981-2.228-4.981 0-3.309 2.243-6 5-6s5 2.691 5 6c0 2-.833 3.862-2.228 4.981-1.126.904-1.772 2.314-1.772 3.869v9.15h-2v-9.15c0-1.555-.646-2.965-1.772-3.869zm-5.228 15.019h32v4h-32zm14 6h4v18h-4z"/><path d="m8 3h48v29h2v-31h-52v31h2z"/><g fill="#f0bc5e"><path d="m57 53h-17v-3c0-1.654 1.346-3 3-3h11v-13c0-1.654 1.346-3 3-3h3v19c0 1.654-1.346 3-3 3z"/><path d="m24 53h-17c-1.654 0-3-1.346-3-3v-19h3c1.654 0 3 1.346 3 3v13h11c1.654 0 3 1.346 3 3z"/></g></svg>