<svg height="512pt" viewBox="-6 0 512 512" width="512pt" xmlns="http://www.w3.org/2000/svg"><path d="m51.097656 413.222656c-32.375-42.503906-51.484375-95.699218-51.0898435-153.347656.9531255-139.871094 115.1992185-251.152344 255.0507815-248.589844 136.121094 2.492188 245.699218 113.617188 245.699218 250.335938 0 56.988281-19.027343 109.515625-51.09375 151.597656-.304687.398438-.8125.585938-1.304687.480469-60.742187-13.027344-127.671875-20.246094-197.980469-20.246094-70.289062 0-137.199218 7.214844-197.929687 20.238281-.511719.109375-1.035157-.050781-1.351563-.46875zm0 0" fill="#ea5569"/><path d="m443.820312 155.597656-17.042968-23.101562c-19.527344-26.464844-28.523438-62.230469-29.914063-112.582032-.304687-11.078124-9.851562-19.914062-21.53125-19.914062h-249.90625c-11.679687 0-21.226562 8.835938-21.53125 19.910156-1.386719 50.355469-10.382812 86.121094-29.910156 112.585938l-17.046875 23.097656c-3.800781 5.152344-5.839844 11.292969-5.839844 17.582031v20.996094h398.5625v-20.996094c0-6.289062-2.039062-12.425781-5.839844-17.578125zm-91.246093-78.949218c0 14.109374-11.4375 25.546874-25.546875 25.546874h-153.296875c-14.109375 0-25.546875-11.4375-25.546875-25.546874 0-14.113282 11.4375-25.550782 25.546875-25.550782h153.296875c14.109375 0 25.546875 11.4375 25.546875 25.550782zm0 0" fill="#f9d19a"/><path d="m82.335938 173.175781v20.996094h-31.238282v-20.996094c0-6.289062 2.039063-12.425781 5.839844-17.578125l17.046875-23.101562c19.527344-26.464844 28.523437-62.230469 29.910156-112.582032.304688-11.078124 9.851563-19.914062 21.53125-19.914062h31.238281c-11.679687 0-21.222656 8.835938-21.53125 19.910156-1.386718 50.355469-10.382812 86.121094-29.910156 112.585938l-17.042968 23.097656c-3.804688 5.15625-5.84375 11.292969-5.84375 17.582031zm0 0" fill="#f7c37d"/><path d="m82.460938 447.371094c-11.472657-10.363282-21.972657-21.824219-31.363282-34.148438v-229.269531h45.476563v257.136719c0 7.316406-8.679688 11.183594-14.113281 6.28125zm0 0" fill="#f7e6b0"/><path d="m449.660156 413.222656c-52.628906 68.117188-117.976562 98.777344-199.28125 98.777344-64.671875 0-123.316406-21.460938-168.042968-64.742188v-263.304687h367.324218zm0 0" fill="#fdf7bd"/><path d="m379.144531 342.355469c0 59.261719-57.648437 107.304687-128.765625 107.304687-71.117187 0-128.765625-48.042968-128.765625-107.304687s57.648438-107.304688 128.765625-107.304688c71.117188 0 128.765625 48.042969 128.765625 107.304688zm0 0" fill="#f7e6b0"/><path d="m167.347656 347.464844c-7.566406 0-12.582031-7.972656-9.175781-14.730469 16.992187-33.691406 51.894531-56.804687 92.207031-56.804687s75.214844 23.113281 92.207032 56.804687c3.40625 6.757813-1.609376 14.730469-9.175782 14.730469zm180.117188 76.648437c0-8.46875-6.863282-15.332031-15.328125-15.332031h-163.515625c-8.464844 0-15.328125 6.863281-15.328125 15.332031 0 14.109375 11.4375 25.546875 25.550781 25.546875h143.070312c14.113282 0 25.550782-11.4375 25.550782-25.546875zm0 0" fill="#f5b65d"/><path d="m208.480469 449.660156h-29.636719c-14.113281 0-25.550781-11.4375-25.550781-25.546875 0-8.46875 6.863281-15.332031 15.328125-15.332031h29.636718c-8.464843 0-15.328124 6.863281-15.328124 15.332031 0 14.109375 11.4375 25.546875 25.550781 25.546875zm21.695312-158.710937c11.089844-6.757813 23.550781-11.488281 36.875-13.664063-5.429687-.882812-10.996093-1.355468-16.671875-1.355468-40.3125 0-75.214844 23.113281-92.207031 56.804687-3.40625 6.757813 1.609375 14.730469 9.175781 14.730469h18.207032c1.289062-3.996094 2.828124-7.882813 4.574218-11.652344 1.351563.90625 2.976563 1.433594 4.722656 1.433594 4.703126 0 8.515626-3.8125 8.515626-8.515625 0-3.394531-1.984376-6.3125-4.855469-7.683594 5.292969-7.757813 11.617187-14.753906 18.777343-20.796875.960938 3.644531 4.273438 6.335938 8.222657 6.335938 4.703125 0 8.515625-3.8125 8.515625-8.515626 0-2.980468-1.53125-5.597656-3.851563-7.121093zm15.773438 19.042969c-4.703125 0-8.515625 3.8125-8.515625 8.515624 0 4.703126 3.8125 8.515626 8.515625 8.515626s8.519531-3.8125 8.519531-8.515626c0-4.703124-3.816406-8.515624-8.519531-8.515624zm0 0" fill="#f4aa39"/><path d="m347.449219 378.863281c-.390625 8.246094-7.492188 14.589844-15.746094 14.589844h-162.648437c-8.253907 0-15.355469-6.34375-15.742188-14.589844-.414062-8.800781 6.597656-16.070312 15.308594-16.070312h19.769531c2.628906 0 4.757813 2.132812 4.757813 4.761719 0 5.140624 3.644531 9.746093 8.734374 10.464843 6.304688.886719 11.707032-3.984375 11.707032-10.117187v-.347656c0-2.628907 2.128906-4.761719 4.757812-4.761719h113.789063c8.710937 0 15.726562 7.269531 15.3125 16.070312zm0 0" fill="#f16b38"/><path d="m198.257812 393.453125h-29.203124c-8.253907 0-15.355469-6.34375-15.742188-14.589844-.414062-8.800781 6.597656-16.070312 15.308594-16.070312h19.769531c1.0625 0 2.035156.363281 2.828125.953125-2.960938 1.722656-8.289062 5.984375-8.289062 14.378906 0 8.464844 6.863281 15.328125 15.328124 15.328125zm0 0" fill="#e55920"/></svg>